<svg width="39" height="39" viewBox="0 0 39 39" fill="none" xmlns="http://www.w3.org/2000/svg">
<path d="M31.214 23.786H12.986V20.888H31.214V23.786ZM12.986 34.16V31.052H31.214V34.16H12.986ZM31.214 28.868H12.986V25.928H31.214V28.868ZM38.396 15.512V12.908H16.388C16.892 11.9 17.354 10.85 17.774 9.842H35.96V7.322H18.656C18.992 6.272 19.328 5.264 19.622 4.214C25.628 3.878 31.34 3.332 35.54 2.45L33.566 0.181998C26.972 1.526 14.246 2.198 4.082 2.282C4.376 2.954 4.67 3.962 4.712 4.676C8.324 4.676 12.272 4.592 16.178 4.382C15.926 5.39 15.632 6.356 15.296 7.322H4.67V9.842H14.372C13.994 10.85 13.49 11.9 12.986 12.908H1.604V15.512H11.516C8.912 19.88 5.3 23.786 0.596 26.516C1.184 27.062 2.108 28.196 2.528 28.91C5.384 27.188 7.862 25.088 10.004 22.736V38.318H12.986V36.68H31.214V38.318H34.28V18.41H13.364C13.994 17.486 14.54 16.478 15.086 15.512H38.396Z" fill="#050038"/>
</svg>
