<svg width="338" height="73" viewBox="0 0 338 73" fill="none" xmlns="http://www.w3.org/2000/svg">
<rect x="100" width="2.77049" height="73" rx="1.38525" fill="#EEF2F9"/>
<path d="M32.214 37.7604H13.986V34.8624H32.214V37.7604ZM13.986 48.1344V45.0264H32.214V48.1344H13.986ZM32.214 42.8424H13.986V39.9024H32.214V42.8424ZM39.396 29.4864V26.8824H17.388C17.892 25.8744 18.354 24.8244 18.774 23.8164H36.96V21.2964H19.656C19.992 20.2464 20.328 19.2384 20.622 18.1884C26.628 17.8524 32.34 17.3064 36.54 16.4244L34.566 14.1564C27.972 15.5004 15.246 16.1724 5.082 16.2564C5.376 16.9284 5.67 17.9364 5.712 18.6504C9.324 18.6504 13.272 18.5664 17.178 18.3564C16.926 19.3644 16.632 20.3304 16.296 21.2964H5.67V23.8164H15.372C14.994 24.8244 14.49 25.8744 13.986 26.8824H2.604V29.4864H12.516C9.912 33.8544 6.3 37.7604 1.596 40.4904C2.184 41.0364 3.108 42.1704 3.528 42.8844C6.384 41.1624 8.862 39.0624 11.004 36.7104V52.2924H13.986V50.6544H32.214V52.2924H35.28V32.3844H14.364C14.994 31.4604 15.54 30.4524 16.086 29.4864H39.396ZM59.304 36.5844C58.464 35.4504 54.852 30.8304 53.55 29.3604V25.7064H58.968V22.8084H53.55V13.8204H50.568V22.8084H44.31V25.7064H50.19C48.846 31.4604 46.074 38.0124 43.344 41.5404C43.848 42.2544 44.604 43.5144 44.94 44.3544C47.04 41.5824 49.056 37.0044 50.568 32.3004V52.1244H53.55V33.0144C54.978 35.0724 56.658 37.6764 57.372 39.0624L59.304 36.5844ZM77.616 29.9904C76.482 34.3584 74.676 38.1804 72.366 41.2884C70.056 38.0544 68.334 34.1904 67.116 29.9904H77.616ZM79.212 27.0504L78.666 27.1344H64.134V19.2804H81.564V16.3824H61.11V28.1004C61.11 34.7364 60.648 43.7664 55.86 50.1924C56.532 50.5284 57.834 51.4944 58.338 52.0404C63 45.9084 63.966 36.8784 64.134 29.9904H64.344C65.772 35.1984 67.788 39.8184 70.476 43.6404C67.998 46.3284 65.142 48.3864 62.076 49.6464C62.748 50.2344 63.63 51.4104 64.008 52.1244C67.032 50.6544 69.888 48.6384 72.366 45.9924C74.634 48.6384 77.364 50.7804 80.514 52.2504C80.976 51.4524 81.942 50.2764 82.614 49.6464C79.38 48.3444 76.608 46.2864 74.298 43.7244C77.448 39.6084 79.842 34.2744 81.102 27.6384L79.212 27.0504ZM122.924 34.0652L143.883 20.7966H147.451L126.8 34.3113L148.723 48.9744H144.354L122.924 34.6189V48.9744H120.319V20.7966H122.924V34.0652ZM178.438 48.9744V45.8572C177.454 46.3904 176.333 46.8826 175.075 47.3337C173.831 47.7849 172.512 48.1746 171.117 48.5027C169.736 48.8308 168.314 49.0837 166.852 49.2615C165.389 49.4392 163.953 49.5281 162.545 49.5281C160.713 49.5281 159.065 49.364 157.603 49.0359C156.153 48.7078 154.923 48.2224 153.911 47.5798C152.899 46.9236 152.12 46.1169 151.573 45.1599C151.026 44.1892 150.753 43.0681 150.753 41.7966C150.753 40.5388 151.067 39.4314 151.696 38.4744C152.339 37.5037 153.248 36.6628 154.424 35.9519C155.6 35.2273 157.015 34.6189 158.669 34.1267C160.337 33.6208 162.196 33.197 164.247 32.8552C166.298 32.4998 168.513 32.2126 170.892 31.9939C173.284 31.7615 175.8 31.5701 178.438 31.4197V29.2664C178.438 28.3914 178.274 27.6189 177.946 26.949C177.618 26.2791 177.16 25.698 176.572 25.2058C175.984 24.7 175.294 24.283 174.501 23.9548C173.708 23.613 172.847 23.3396 171.917 23.1345C171.001 22.9294 170.03 22.7859 169.005 22.7039C167.993 22.6082 166.975 22.5603 165.949 22.5603C164.568 22.5603 163.311 22.6287 162.176 22.7654C161.041 22.9021 159.981 23.0935 158.997 23.3396C158.013 23.572 157.069 23.8455 156.167 24.1599C155.265 24.4744 154.355 24.8093 153.439 25.1648V22.1707C155.34 21.6648 157.363 21.2273 159.51 20.8582C161.67 20.4753 163.96 20.2839 166.38 20.2839C168.431 20.2839 170.345 20.4617 172.122 20.8171C173.899 21.1589 175.444 21.7126 176.757 22.4783C178.069 23.2439 179.102 24.2351 179.854 25.4519C180.605 26.655 180.981 28.1248 180.981 29.8611V48.9744H178.438ZM178.438 33.696C173.968 33.9421 170.146 34.2908 166.975 34.7419C163.816 35.1931 161.232 35.7468 159.223 36.4031C157.213 37.0593 155.736 37.825 154.793 38.7C153.863 39.575 153.398 40.5662 153.398 41.6736C153.398 42.5759 153.624 43.3757 154.075 44.073C154.54 44.7703 155.203 45.3582 156.064 45.8367C156.926 46.3015 157.972 46.657 159.202 46.9031C160.433 47.1355 161.813 47.2517 163.345 47.2517C164.247 47.2517 165.177 47.2039 166.134 47.1082C167.104 46.9988 168.068 46.8552 169.025 46.6775C169.982 46.4861 170.926 46.2673 171.855 46.0212C172.785 45.7615 173.66 45.4812 174.48 45.1804C175.301 44.8796 176.046 44.5583 176.716 44.2166C177.399 43.8748 177.974 43.5261 178.438 43.1707V33.696ZM217.526 48.9744V30.3738C217.526 28.8152 217.314 27.5369 216.891 26.5388C216.48 25.5271 215.886 24.7273 215.106 24.1394C214.341 23.5515 213.404 23.1414 212.297 22.9089C211.189 22.6765 209.945 22.5603 208.564 22.5603C206.965 22.5603 205.393 22.7585 203.848 23.155C202.316 23.5378 200.867 24.03 199.5 24.6316C198.133 25.2195 196.875 25.8757 195.727 26.6003C194.578 27.325 193.607 28.0222 192.814 28.6921V48.9744H190.251V20.7966H192.814V25.739C193.771 25.1375 194.824 24.5085 195.973 23.8523C197.135 23.1824 198.379 22.574 199.705 22.0271C201.045 21.4666 202.474 21.0085 203.991 20.6531C205.509 20.2976 207.108 20.1199 208.79 20.1199C210.69 20.1199 212.345 20.3523 213.753 20.8171C215.175 21.2683 216.351 21.9177 217.28 22.7654C218.224 23.5994 218.928 24.6179 219.393 25.821C219.857 27.0105 220.09 28.3435 220.09 29.8201V48.9744H217.526ZM257.394 41.2019C257.394 42.2957 257.25 43.2458 256.963 44.0525C256.676 44.8591 256.272 45.5564 255.753 46.1443C255.247 46.7185 254.632 47.1902 253.907 47.5593C253.196 47.9148 252.41 48.2019 251.549 48.4207C250.688 48.6257 249.765 48.7693 248.78 48.8513C247.796 48.9333 246.777 48.9744 245.725 48.9744H229.462V20.7966H245.355C246.162 20.7966 246.969 20.8308 247.775 20.8992C248.582 20.9675 249.354 21.0974 250.093 21.2888C250.845 21.4666 251.535 21.7195 252.164 22.0476C252.807 22.3757 253.36 22.8064 253.825 23.3396C254.304 23.8728 254.673 24.5154 254.933 25.2673C255.206 26.0193 255.343 26.908 255.343 27.9333C255.343 28.8494 255.227 29.6423 254.994 30.3123C254.775 30.9822 254.434 31.5564 253.969 32.0349C253.518 32.5134 252.937 32.9099 252.226 33.2244C251.515 33.5251 250.681 33.7644 249.724 33.9421C251.091 34.0378 252.26 34.2703 253.23 34.6394C254.201 35.0085 254.994 35.5007 255.609 36.116C256.225 36.7312 256.676 37.4695 256.963 38.3308C257.25 39.1785 257.394 40.1355 257.394 41.2019ZM252.943 27.9744C252.943 27.5779 252.916 27.1814 252.861 26.7849C252.807 26.3884 252.684 26.0125 252.492 25.657C252.301 25.2878 252.021 24.946 251.651 24.6316C251.296 24.3171 250.804 24.0505 250.175 23.8318C249.546 23.5994 248.767 23.4216 247.837 23.2986C246.921 23.1619 245.813 23.0935 244.515 23.0935H232.025V32.9373H244.515C246.36 32.9373 247.837 32.8074 248.944 32.5476C250.052 32.2742 250.899 31.9119 251.487 31.4607C252.089 31.0095 252.479 30.4832 252.656 29.8816C252.848 29.28 252.943 28.6443 252.943 27.9744ZM254.707 41.1609C254.707 40.0945 254.522 39.1853 254.153 38.4333C253.784 37.6814 253.217 37.0662 252.451 36.5876C251.686 36.1091 250.701 35.7605 249.498 35.5417C248.295 35.3093 246.866 35.1931 245.212 35.1931H232.025V46.657H245.561C247.27 46.657 248.705 46.5613 249.867 46.3699C251.043 46.1648 251.986 45.8435 252.697 45.406C253.422 44.9548 253.935 44.3806 254.235 43.6833C254.55 42.9861 254.707 42.1453 254.707 41.1609ZM290.124 48.9744V45.8572C289.14 46.3904 288.019 46.8826 286.761 47.3337C285.517 47.7849 284.197 48.1746 282.803 48.5027C281.422 48.8308 280 49.0837 278.537 49.2615C277.074 49.4392 275.639 49.5281 274.23 49.5281C272.398 49.5281 270.751 49.364 269.288 49.0359C267.839 48.7078 266.608 48.2224 265.597 47.5798C264.585 46.9236 263.806 46.1169 263.259 45.1599C262.712 44.1892 262.438 43.0681 262.438 41.7966C262.438 40.5388 262.753 39.4314 263.382 38.4744C264.024 37.5037 264.934 36.6628 266.109 35.9519C267.285 35.2273 268.7 34.6189 270.354 34.1267C272.022 33.6208 273.882 33.197 275.933 32.8552C277.983 32.4998 280.198 32.2126 282.577 31.9939C284.97 31.7615 287.485 31.5701 290.124 31.4197V29.2664C290.124 28.3914 289.96 27.6189 289.632 26.949C289.304 26.2791 288.846 25.698 288.258 25.2058C287.67 24.7 286.979 24.283 286.187 23.9548C285.394 23.613 284.532 23.3396 283.603 23.1345C282.687 22.9294 281.716 22.7859 280.69 22.7039C279.679 22.6082 278.66 22.5603 277.635 22.5603C276.254 22.5603 274.996 22.6287 273.861 22.7654C272.727 22.9021 271.667 23.0935 270.683 23.3396C269.698 23.572 268.755 23.8455 267.853 24.1599C266.95 24.4744 266.041 24.8093 265.125 25.1648V22.1707C267.025 21.6648 269.049 21.2273 271.195 20.8582C273.355 20.4753 275.646 20.2839 278.065 20.2839C280.116 20.2839 282.03 20.4617 283.808 20.8171C285.585 21.1589 287.13 21.7126 288.442 22.4783C289.755 23.2439 290.787 24.2351 291.539 25.4519C292.291 26.655 292.667 28.1248 292.667 29.8611V48.9744H290.124ZM290.124 33.696C285.653 33.9421 281.832 34.2908 278.66 34.7419C275.502 35.1931 272.918 35.7468 270.908 36.4031C268.898 37.0593 267.422 37.825 266.479 38.7C265.549 39.575 265.084 40.5662 265.084 41.6736C265.084 42.5759 265.31 43.3757 265.761 44.073C266.226 44.7703 266.889 45.3582 267.75 45.8367C268.611 46.3015 269.657 46.657 270.888 46.9031C272.118 47.1355 273.499 47.2517 275.03 47.2517C275.933 47.2517 276.862 47.2039 277.819 47.1082C278.79 46.9988 279.754 46.8552 280.711 46.6775C281.668 46.4861 282.611 46.2673 283.541 46.0212C284.471 45.7615 285.346 45.4812 286.166 45.1804C286.986 44.8796 287.731 44.5583 288.401 44.2166C289.085 43.8748 289.659 43.5261 290.124 43.1707V33.696ZM329.212 48.9744V30.3738C329.212 28.8152 329 27.5369 328.576 26.5388C328.166 25.5271 327.571 24.7273 326.792 24.1394C326.026 23.5515 325.09 23.1414 323.982 22.9089C322.875 22.6765 321.631 22.5603 320.25 22.5603C318.65 22.5603 317.078 22.7585 315.533 23.155C314.002 23.5378 312.553 24.03 311.186 24.6316C309.818 25.2195 308.561 25.8757 307.412 26.6003C306.264 27.325 305.293 28.0222 304.5 28.6921V48.9744H301.937V20.7966H304.5V25.739C305.457 25.1375 306.51 24.5085 307.658 23.8523C308.82 23.1824 310.064 22.574 311.391 22.0271C312.73 21.4666 314.159 21.0085 315.677 20.6531C317.194 20.2976 318.794 20.1199 320.476 20.1199C322.376 20.1199 324.03 20.3523 325.438 20.8171C326.86 21.2683 328.036 21.9177 328.966 22.7654C329.909 23.5994 330.613 24.6179 331.078 25.821C331.543 27.0105 331.775 28.3435 331.775 29.8201V48.9744H329.212Z" fill="#EEF2F9"/>
</svg>
