<svg width="480" height="480" viewBox="0 0 480 480" fill="none" xmlns="http://www.w3.org/2000/svg">
<path d="M72.192 190.848H46.752V201.6H72.192V190.848Z" fill="#EBEBEB"/>
<path d="M58.08 204.48H32.64V215.232H58.08V204.48Z" fill="#EBEBEB"/>
<path d="M86.4 204.48H60.96V215.232H86.4V204.48Z" fill="#EBEBEB"/>
<path d="M433.248 204.48H407.808V215.232H433.248V204.48Z" fill="#EBEBEB"/>
<path d="M433.248 33.12H407.808V43.872H433.248V33.12Z" fill="#EBEBEB"/>
<path d="M447.456 46.656H422.016V57.408H447.456V46.656Z" fill="#EBEBEB"/>
<path d="M58.08 33.12H32.64V43.872H58.08V33.12Z" fill="#EBEBEB"/>
<path d="M186.144 103.008H160.704V113.76H186.144V103.008Z" fill="#EBEBEB"/>
<path d="M200.352 89.376H174.912V100.128H200.352V89.376Z" fill="#EBEBEB"/>
<path d="M410.4 88.896H240V96.384H410.4V88.896Z" fill="#EBEBEB"/>
<path d="M257.088 96.288H249.6V121.056H257.088V96.288Z" fill="#EBEBEB"/>
<path d="M257.088 96.288H249.6V103.968H257.088V96.288Z" fill="#DBDBDB"/>
<path d="M400.896 96.288H393.408V121.056H400.896V96.288Z" fill="#EBEBEB"/>
<path d="M400.896 96.288H393.408V103.968H400.896V96.288Z" fill="#DBDBDB"/>
<path d="M283.776 41.28H271.776V88.896H283.776V41.28Z" fill="#C7C7C7"/>
<path d="M283.776 38.688H271.776V43.968H283.776V38.688Z" fill="#DBDBDB"/>
<path d="M283.776 50.592H271.776V52.512H283.776V50.592Z" fill="#DBDBDB"/>
<path d="M285.312 77.376H271.776V82.656H285.312V77.376Z" fill="#DBDBDB"/>
<path d="M292.128 33.312H283.776V88.896H292.128V33.312Z" fill="#DBDBDB"/>
<path d="M290.4 38.496H285.408V59.904H290.4V38.496Z" fill="#EBEBEB"/>
<path d="M312.297 43.842L306.425 49.782L345.957 88.8575L351.828 82.9176L312.297 43.842Z" fill="#C7C7C7"/>
<path d="M326.158 59.9618L322.649 63.5121L337.874 78.5619L341.384 75.0116L326.158 59.9618Z" fill="#DBDBDB"/>
<path d="M306.432 46.656H292.224V88.896H306.432V46.656Z" fill="#A6A6A6"/>
<path d="M306.432 80.448H292.224V84.384H306.432V80.448Z" fill="#C7C7C7"/>
<path d="M306.432 76.3199H292.224V77.8559H306.432V76.3199Z" fill="#C7C7C7"/>
<path d="M271.776 49.248H261.984V88.896H271.776V49.248Z" fill="#A6A6A6"/>
<path d="M271.776 80.928H261.984V84.672H271.776V80.928Z" fill="#C7C7C7"/>
<path d="M271.776 57.408H261.984V61.152H271.776V57.408Z" fill="#C7C7C7"/>
<path d="M271.776 63.6479H261.984V65.088H271.776V63.6479Z" fill="#C7C7C7"/>
<path d="M392.544 70.368L391.488 73.248L390.816 74.976L389.76 77.76L385.536 88.896H362.88L358.656 77.76L357.6 74.976L356.928 73.248L355.872 70.368L364.224 58.176L359.904 50.208H388.512L384.192 58.176L392.544 70.368Z" fill="#DBDBDB"/>
<path d="M392.544 70.368L391.488 73.248H356.928L355.872 70.368H392.544Z" fill="#A6A6A6"/>
<path d="M390.816 74.976L389.76 77.76H358.656L357.6 74.976H390.816Z" fill="#A6A6A6"/>
<path d="M28.512 342.24L81.408 342.048L134.304 341.952L240 341.76L345.696 341.952L398.592 342.048L451.488 342.24L398.592 342.528H345.696L240 342.72L134.304 342.528H81.408L28.512 342.24Z" fill="#263238"/>
<path d="M104.736 351.36C104.736 354.816 87.456 357.696 66.144 357.696C44.832 357.696 27.552 354.816 27.552 351.36C27.552 347.904 44.832 345.024 66.144 345.024C87.456 345.024 104.736 347.808 104.736 351.36Z" fill="#EBEBEB"/>
<path d="M245.664 438.912C353.982 438.912 441.792 427.995 441.792 414.528C441.792 401.061 353.982 390.144 245.664 390.144C137.345 390.144 49.536 401.061 49.536 414.528C49.536 427.995 137.345 438.912 245.664 438.912Z" fill="#EBEBEB"/>
<path d="M68.352 269.664C67.296 273.6 66.528 277.536 66.24 281.664C66.336 281.856 66.336 282.624 66.24 282.432C66.24 283.104 65.184 283.008 65.184 282.336C65.184 281.952 65.184 281.472 65.184 281.088C62.88 278.208 59.424 276.384 56.736 273.792C54.528 271.776 52.896 269.28 52.128 266.4C49.824 258.528 51.936 250.272 49.248 242.4C46.848 235.68 42.624 229.824 39.072 223.68C35.328 217.248 32.544 210.432 32.256 202.848C32.064 197.088 32.736 189.312 37.152 184.992C41.856 180.384 47.616 183.84 51.264 187.968C61.632 199.872 66.432 214.944 68.352 230.304C69.408 238.848 70.56 247.392 70.272 256.032C70.08 260.64 69.408 265.248 68.352 269.664Z" fill="#FFC727"/>
<path d="M66.336 284.736C66.912 276.672 66.816 268.608 66.048 260.64V260.544C66.144 254.016 66.72 247.488 66.432 240.96C66.144 233.856 65.184 226.848 63.552 219.936C63.552 219.84 63.36 219.84 63.456 219.936C64.704 226.752 65.472 233.568 65.76 240.48C65.856 244.128 65.856 247.872 65.664 251.52C65.568 252.768 65.472 253.92 65.376 255.168C62.688 236.832 56.064 219.36 45.984 203.808C45.888 203.616 45.504 203.808 45.6 204.096C52.8 215.904 58.08 228.768 61.44 242.208C56.448 232.992 48.96 225.312 43.296 216.48C43.296 216.384 43.2 216.48 43.2 216.576C48.192 226.464 56.544 234.24 61.824 244.032C62.688 247.968 63.456 252 64.032 256.032C64.8 261.6 65.184 267.168 65.28 272.736C62.208 267.072 59.04 261.6 56.64 255.648C56.544 255.456 56.352 255.552 56.352 255.744C58.464 261.984 61.344 268.704 65.28 274.08C65.28 278.016 65.184 281.952 64.992 285.888C64.32 296.448 62.592 306.816 61.728 317.376C61.728 317.472 61.824 317.664 61.92 317.664C62.016 317.664 62.208 317.568 62.208 317.472C64.32 306.528 65.664 295.68 66.336 284.736Z" fill="#263238"/>
<path d="M55.104 203.52C55.104 203.424 54.912 203.52 55.008 203.616C56.928 208.896 57.984 214.368 59.424 219.744C59.424 219.84 59.616 219.936 59.712 219.84C59.808 219.84 59.808 219.744 59.808 219.648C59.232 214.08 57.216 208.608 55.104 203.52Z" fill="#263238"/>
<path d="M103.968 225.792C102.72 228.96 101.184 231.936 99.552 234.912C96.096 241.248 92.448 247.008 91.776 254.304C91.488 257.568 91.392 260.832 90.432 264C89.568 266.688 88.224 269.28 86.592 271.584C82.848 277.056 78.144 281.76 74.688 287.424C71.04 293.376 68.352 299.808 66.72 306.528C66.624 306.912 66.048 306.816 66.144 306.432V306.336V306.24C65.568 290.496 66.816 274.656 71.616 259.68C73.728 253.056 76.32 246.624 79.2 240.288C81.792 234.816 84.96 229.536 89.472 225.504C92.448 222.816 98.784 217.824 102.912 220.512C104.928 221.856 104.736 223.872 103.968 225.792Z" fill="#FFC727"/>
<path d="M88.224 261.408C85.44 265.92 82.368 270.336 79.104 274.56C77.568 276.576 76.032 278.496 74.496 280.512C73.728 281.472 72.96 282.432 72.288 283.392C72.672 281.76 73.056 280.128 73.536 278.4C75.552 270.432 77.472 262.464 80.544 254.784C83.616 247.392 87.264 240.192 91.488 233.376C91.584 233.184 91.296 233.088 91.2 233.28C87.84 238.752 84.48 244.224 81.696 249.984C80.16 253.152 78.816 256.512 77.664 259.872C78.912 252.672 80.736 245.664 83.04 238.752C83.04 238.656 82.944 238.656 82.944 238.752C79.968 245.76 78.048 253.152 77.376 260.736C76.704 262.752 76.032 264.864 75.456 266.88C72.96 275.712 70.848 284.544 68.832 293.472C68.832 287.616 69.312 281.76 70.368 276C70.368 275.904 70.368 275.904 70.272 275.904C70.176 275.904 70.176 275.904 70.176 276C68.64 282.048 68.16 288.288 68.64 294.432C67.872 297.792 67.104 301.248 66.432 304.608C64.896 311.808 62.976 319.2 62.112 326.592C62.112 326.688 62.208 326.784 62.304 326.784C62.4 326.784 62.4 326.784 62.4 326.688C63.456 322.752 64.128 318.624 64.992 314.592C65.856 310.56 66.816 306.528 67.68 302.496C69.024 296.64 70.464 290.784 71.904 285.024C72.864 282.912 74.784 280.992 76.128 279.168C77.664 277.248 79.2 275.232 80.736 273.216C83.616 269.472 86.112 265.536 88.32 261.408C88.416 261.408 88.224 261.312 88.224 261.408Z" fill="#263238"/>
<path d="M88.896 254.688C85.44 259.104 82.464 263.904 79.968 268.896C79.968 268.992 80.064 268.992 80.064 268.992C83.04 264.288 86.016 259.488 88.992 254.784C89.088 254.688 88.896 254.688 88.896 254.688Z" fill="#263238"/>
<path d="M21.984 240.672C24 244.224 26.304 248.352 25.44 252.576C24.864 255.264 22.944 257.376 22.56 260.16C21.792 266.208 27.744 270.144 32.064 272.928C42.816 280.032 57.696 286.368 59.616 300.768C59.712 301.248 60.576 301.152 60.48 300.672V300.576C60.48 300.576 60.576 300.576 60.576 300.48C62.016 293.184 61.92 285.696 60.384 278.4C58.752 270.912 55.488 264.288 51.648 257.664C45.12 246.624 38.304 235.2 28.512 226.752C25.824 224.448 20.256 220.224 18.048 225.504C15.936 230.784 19.488 236.448 21.984 240.672Z" fill="#FFC727"/>
<path d="M31.872 264.192C39.072 271.968 50.4 276.288 56.544 284.928C53.088 271.68 46.656 259.488 37.536 249.312C37.44 249.216 37.44 249.024 37.536 248.928C37.632 248.832 37.824 248.832 37.92 248.928C44.544 255.36 49.728 262.944 53.376 271.392C51.648 265.536 49.44 259.776 46.656 254.304C46.56 254.208 46.656 254.112 46.752 254.016C46.848 253.92 46.944 254.016 47.04 254.112C50.4 260.064 52.896 266.592 54.24 273.312C62.304 292.992 63.072 316.032 61.44 336.672C61.44 336.96 60.96 336.96 60.96 336.672C61.44 320.352 61.152 303.744 57.216 287.808L56.928 286.848C50.208 277.536 38.88 273.216 31.584 264.288C31.68 264.288 31.776 264.096 31.872 264.192Z" fill="#263238"/>
<path d="M30.144 257.568C33.888 261.024 37.632 264.576 41.376 268.032C41.376 268.032 41.376 268.128 41.28 268.128C37.056 265.248 33.216 261.792 29.952 257.856C29.856 257.76 29.856 257.664 29.952 257.664C30.048 257.664 30.144 257.472 30.144 257.568Z" fill="#263238"/>
<path d="M29.568 242.592C32.928 248.064 36.672 253.248 40.8 258.048C40.8 258.144 40.8 258.24 40.704 258.144C36 253.728 32.16 248.448 29.376 242.688C29.376 242.592 29.376 242.592 29.376 242.496C29.376 242.4 29.568 242.592 29.568 242.592Z" fill="#263238"/>
<path d="M46.464 351.36H79.392L74.976 307.104H51.552L46.464 351.36Z" fill="#455A64"/>
<path d="M50.688 314.208H75.648L74.976 307.008H51.552L50.688 314.208Z" fill="#263238"/>
<path d="M78.336 302.112H47.52V309.216H78.336V302.112Z" fill="#455A64"/>
<path d="M385.152 225.408H96.384V372H385.152V225.408Z" fill="#DBDBDB"/>
<path d="M96.384 273.216H58.752V372H96.384V273.216Z" fill="#DBDBDB"/>
<path d="M422.88 273.216H385.248V372H422.88V273.216Z" fill="#DBDBDB"/>
<path d="M241.248 225.408H240.384V342.816H241.248V225.408Z" fill="#C7C7C7"/>
<path d="M96.864 273.216H96V372H96.864V273.216Z" fill="#C7C7C7"/>
<path d="M385.632 273.216H384.768V372H385.632V273.216Z" fill="#C7C7C7"/>
<path d="M241.248 343.296H96V312.672H241.248V343.296ZM96.864 342.336H240.288V313.536H96.864V342.336Z" fill="#C7C7C7"/>
<path d="M385.632 343.296H240.384V312.672H385.632V343.296ZM241.248 342.336H384.672V313.536H241.248V342.336Z" fill="#C7C7C7"/>
<path d="M106.272 257.664C105.888 257.664 105.696 257.952 105.696 258.336C105.696 258.72 105.984 258.912 106.272 258.912C106.656 258.912 106.848 258.624 106.848 258.24C106.848 257.952 106.56 257.664 106.272 257.664Z" fill="#A6A6A6"/>
<path d="M107.328 333.888C106.944 333.888 106.752 334.176 106.752 334.56C106.752 334.944 107.04 335.136 107.328 335.136C107.712 335.136 107.904 334.848 107.904 334.464C107.904 334.176 107.616 333.888 107.328 333.888Z" fill="#A6A6A6"/>
<path d="M143.04 321.984C143.04 321.888 142.944 321.888 142.944 321.792C142.848 321.696 142.656 321.6 142.56 321.696L142.464 321.792C142.464 321.888 142.368 321.888 142.368 321.984C141.984 322.752 143.424 322.752 143.04 321.984Z" fill="#A6A6A6"/>
<path d="M80.832 335.52C80.832 335.424 80.736 335.424 80.736 335.328C80.64 335.232 80.448 335.136 80.352 335.232L80.256 335.328C80.256 335.424 80.16 335.424 80.16 335.52C79.776 336.288 81.216 336.288 80.832 335.52Z" fill="#A6A6A6"/>
<path d="M111.552 261.504C111.264 261.504 111.072 261.696 111.072 261.984C111.072 262.272 111.264 262.464 111.552 262.464C111.84 262.464 112.032 262.272 112.032 261.984C112.032 261.696 111.84 261.504 111.552 261.504Z" fill="#A6A6A6"/>
<path d="M306.24 276.96C305.952 276.96 305.76 277.152 305.76 277.44C305.76 277.728 305.952 277.92 306.24 277.92C306.528 277.92 306.72 277.728 306.72 277.44C306.72 277.152 306.528 276.96 306.24 276.96Z" fill="#A6A6A6"/>
<path d="M71.52 309.792C71.232 309.792 71.04 309.984 71.04 310.272C71.04 310.56 71.232 310.752 71.52 310.752C71.808 310.752 72 310.56 72 310.272C72 309.984 71.808 309.792 71.52 309.792Z" fill="#A6A6A6"/>
<path d="M134.016 234.912C133.728 234.624 133.344 234.624 133.056 234.912C132.864 235.2 132.768 235.488 132.864 235.776C132.96 236.16 133.344 236.352 133.728 236.256C133.92 236.16 134.112 235.968 134.208 235.776C134.4 235.488 134.304 235.104 134.016 234.912Z" fill="#A6A6A6"/>
<path d="M112.512 330.432C112.224 330.144 111.84 330.144 111.552 330.432C111.36 330.624 111.264 331.008 111.36 331.296C111.456 331.68 111.84 331.872 112.224 331.776C112.416 331.68 112.608 331.488 112.704 331.296C112.8 331.008 112.704 330.624 112.512 330.432Z" fill="#A6A6A6"/>
<path d="M359.04 335.616C359.424 335.616 359.616 335.232 359.616 334.944C359.616 334.656 359.328 334.464 359.04 334.368C358.656 334.368 358.464 334.752 358.464 335.04C358.56 335.328 358.752 335.52 359.04 335.616Z" fill="#A6A6A6"/>
<path d="M229.824 336.864C230.208 336.864 230.4 336.576 230.4 336.192C230.4 335.808 230.112 335.616 229.824 335.616C229.44 335.616 229.248 335.904 229.248 336.288C229.152 336.576 229.44 336.864 229.824 336.864Z" fill="#A6A6A6"/>
<path d="M355.488 236.544C355.872 236.544 356.064 236.256 356.064 235.872C356.064 235.488 355.776 235.296 355.488 235.296C355.2 235.296 354.912 235.584 354.912 235.872C354.816 236.256 355.104 236.544 355.488 236.544Z" fill="#A6A6A6"/>
<path d="M198.816 253.632C199.2 253.632 199.392 253.344 199.392 252.96C199.392 252.576 199.104 252.384 198.816 252.384C198.432 252.384 198.24 252.672 198.24 253.056C198.144 253.344 198.432 253.632 198.816 253.632Z" fill="#A6A6A6"/>
<path d="M313.056 271.2C313.056 271.296 313.152 271.296 313.152 271.392C313.248 271.488 313.44 271.584 313.536 271.488L313.632 271.392C313.632 271.296 313.728 271.296 313.728 271.2C314.112 270.528 312.672 270.528 313.056 271.2Z" fill="#A6A6A6"/>
<path d="M256.8 330.912C256.8 331.008 256.896 331.008 256.896 331.104C256.992 331.2 257.184 331.296 257.28 331.2L257.376 331.104L257.472 330.912C257.856 330.24 256.512 330.24 256.8 330.912Z" fill="#A6A6A6"/>
<path d="M406.08 319.68C406.08 319.776 406.176 319.776 406.176 319.872C406.272 319.968 406.464 320.064 406.56 319.968L406.656 319.872C406.656 319.776 406.752 319.776 406.752 319.68C407.136 318.912 405.696 318.912 406.08 319.68Z" fill="#A6A6A6"/>
<path d="M353.664 331.776C353.952 331.776 354.144 331.584 354.144 331.296C354.144 331.008 353.952 330.816 353.664 330.816C353.376 330.816 353.184 331.008 353.184 331.296C353.184 331.584 353.472 331.776 353.664 331.776Z" fill="#A6A6A6"/>
<path d="M393.696 283.488C393.984 283.488 394.176 283.296 394.176 283.008C394.176 282.72 393.984 282.528 393.696 282.528C393.408 282.528 393.216 282.72 393.216 283.008C393.216 283.296 393.504 283.488 393.696 283.488Z" fill="#A6A6A6"/>
<path d="M397.152 347.328C397.44 347.328 397.632 347.136 397.632 346.848C397.632 346.56 397.44 346.368 397.152 346.368C396.864 346.368 396.672 346.56 396.672 346.848C396.672 347.136 396.864 347.328 397.152 347.328Z" fill="#A6A6A6"/>
<path d="M322.08 358.368C322.368 358.656 322.752 358.656 323.04 358.368C323.232 358.08 323.328 357.792 323.232 357.504C323.136 357.12 322.752 356.928 322.368 357.024C322.176 357.12 321.984 357.312 321.888 357.504C321.792 357.792 321.792 358.08 322.08 358.368Z" fill="#A6A6A6"/>
<path d="M352.8 262.848C353.088 263.136 353.472 263.136 353.76 262.848C353.952 262.56 354.048 262.272 353.952 261.984C353.856 261.6 353.472 261.408 353.088 261.504C352.896 261.6 352.704 261.792 352.608 261.984C352.512 262.272 352.512 262.56 352.8 262.848Z" fill="#A6A6A6"/>
<path d="M179.808 293.376C180.096 293.664 180.48 293.664 180.768 293.376C180.96 293.088 181.056 292.8 180.96 292.512C180.864 292.128 180.48 291.936 180.096 292.032C179.904 292.128 179.712 292.32 179.616 292.512C179.52 292.8 179.52 293.184 179.808 293.376Z" fill="#A6A6A6"/>
<path d="M409.824 313.44C410.112 313.728 410.496 313.728 410.784 313.44C410.976 313.152 411.072 312.864 410.976 312.576C410.88 312.192 410.496 312 410.112 312.096C409.92 312.192 409.728 312.384 409.632 312.576C409.536 312.864 409.632 313.248 409.824 313.44Z" fill="#A6A6A6"/>
<path d="M96.864 342.432C120.384 348 144.384 350.88 168.576 350.976C193.056 350.784 217.44 348.096 241.248 342.816L96.864 342.432Z" fill="#C7C7C7"/>
<path d="M240.768 342.432C264.288 348 288.288 350.88 312.48 350.976C336.96 350.784 361.344 348.096 385.152 342.816L240.768 342.432Z" fill="#C7C7C7"/>
<path d="M422.88 363.264H58.752V371.904H422.88V363.264Z" fill="#37474F"/>
<path d="M109.248 372L99.648 391.584L90.048 411.264H81.6L84.768 391.584L87.84 372H109.248Z" fill="#37474F"/>
<path d="M87.84 372H109.248L103.392 383.808H86.016L87.84 372Z" fill="#263238"/>
<path d="M396.384 411.264H388.032L378.432 391.584L368.832 372H390.24L393.312 391.584L396.384 411.264Z" fill="#37474F"/>
<path d="M392.064 383.808H374.592L368.832 372H390.144L392.064 383.808Z" fill="#263238"/>
<path d="M415.008 120.96H64.896V157.248H415.008V120.96Z" fill="white"/>
<path d="M415.584 157.632H64.416V120.384H415.488V157.632H415.584ZM65.376 156.672H414.528V121.344H65.376V156.672Z" fill="#C7C7C7"/>
<path d="M415.104 120.96H378.816V157.248H415.104V120.96Z" fill="#FFC727"/>
<path d="M407.232 148.416L404.16 150.72L398.496 143.232L396.384 140.448C397.632 139.968 398.592 139.008 399.168 137.76L401.376 140.64L407.232 148.416Z" fill="white"/>
<path d="M401.184 130.656C398.4 127.008 393.12 126.336 389.376 129.12C385.728 131.904 385.056 137.184 387.84 140.928C390.336 144.192 394.848 145.152 398.4 143.232C399.552 142.56 400.512 141.696 401.28 140.64C403.488 137.664 403.392 133.632 401.184 130.656ZM397.536 139.776C397.152 140.064 396.768 140.256 396.384 140.448C393.792 141.504 390.912 140.256 389.856 137.664C388.8 135.072 390.048 132.192 392.64 131.136C395.232 130.08 398.112 131.328 399.168 133.92C399.648 135.168 399.648 136.512 399.168 137.664C398.784 138.528 398.304 139.2 397.536 139.776Z" fill="white"/>
<path d="M453.504 204.192C451.68 202.848 392.64 184.512 389.952 185.28C389.664 185.376 388.992 188.064 386.4 194.592C386.304 194.88 358.176 228.96 358.176 228.96L396.576 249.216L418.56 218.208C418.56 218.208 446.016 213.024 448.896 211.872C451.776 210.72 455.328 205.536 453.504 204.192Z" fill="#C95F50"/>
<path d="M453.504 204.192C451.68 202.848 392.64 184.512 389.952 185.28C389.664 185.376 388.992 188.064 386.4 194.592C386.304 194.88 382.464 199.392 380.544 201.792C382.944 203.904 406.56 220.512 413.088 226.08L418.656 218.304C418.656 218.304 446.112 213.12 448.992 211.968C451.872 210.816 455.328 205.536 453.504 204.192Z" fill="#FFC727"/>
<path d="M401.184 191.04C400.896 191.712 400.512 192.384 400.032 192.96C399.168 194.112 398.016 195.072 396.672 195.744C395.328 196.416 393.792 196.608 392.352 196.512C390.912 196.32 389.472 195.936 388.224 195.168C388.128 195.168 388.224 195.072 388.32 195.072C392.256 196.992 396.96 195.84 399.456 192.288C399.84 191.712 400.128 191.232 400.416 190.56C400.512 190.272 400.704 189.888 400.8 189.6C400.896 189.312 400.896 189.024 401.28 188.832C401.472 188.736 401.568 188.832 401.664 188.928C401.952 189.504 401.376 190.464 401.184 191.04Z" fill="white"/>
<path d="M441.12 213.792C439.776 213.312 438.72 212.448 437.952 211.296C437.088 210.144 436.416 208.896 435.84 207.552C435.264 206.208 434.88 204.864 434.688 203.424C434.592 202.752 434.496 202.08 434.496 201.312C434.4 200.64 434.496 199.872 434.592 199.2C434.592 199.104 434.688 199.104 434.784 199.104C434.784 199.104 434.88 199.104 434.88 199.2C434.976 199.776 435.072 200.448 435.072 201.024C435.168 201.696 435.264 202.368 435.36 203.04C435.648 204.384 436.032 205.632 436.512 206.88C437.472 209.376 439.104 211.584 441.408 213.12C441.6 213.216 441.6 213.408 441.6 213.504C441.408 213.792 441.216 213.792 441.12 213.792Z" fill="white"/>
<path d="M412.992 218.88C405.792 213.696 398.688 208.512 391.392 203.328C389.376 201.888 387.264 200.448 385.248 199.008C385.152 198.912 385.248 198.912 385.344 198.912C392.928 203.52 400.32 208.416 407.328 213.792C409.344 215.328 411.264 216.96 413.184 218.592C413.472 218.784 413.184 219.072 412.992 218.88Z" fill="white"/>
<path d="M386.016 200.256C386.016 200.352 385.92 200.352 385.92 200.352L385.728 200.448L385.44 200.64C385.248 200.736 384.96 200.928 384.768 201.024C384.288 201.312 383.904 201.504 383.424 201.696C383.328 201.696 383.328 201.6 383.328 201.6C383.808 201.312 384.192 201.024 384.576 200.736L385.152 200.352L385.44 200.16C385.536 200.064 385.632 200.064 385.728 199.968C385.92 200.064 386.016 200.064 386.016 200.256C386.016 200.16 386.016 200.16 386.016 200.256Z" fill="white"/>
<path d="M389.376 202.656C389.376 202.752 389.28 202.752 389.28 202.752L389.088 202.848L388.8 203.04C388.608 203.136 388.32 203.328 388.128 203.424C387.648 203.712 387.264 203.904 386.784 204.096C386.688 204.096 386.688 204 386.688 204C387.168 203.712 387.552 203.424 387.936 203.136L388.512 202.752L388.8 202.56C388.896 202.464 388.992 202.368 389.088 202.368C389.28 202.464 389.376 202.56 389.376 202.656Z" fill="white"/>
<path d="M392.736 205.152C392.736 205.248 392.64 205.248 392.64 205.248L392.448 205.344L392.16 205.536C391.968 205.728 391.68 205.824 391.488 205.92C391.008 206.208 390.624 206.4 390.144 206.592C390.048 206.592 390.048 206.496 390.048 206.496C390.528 206.208 390.912 205.92 391.296 205.632L391.872 205.248L392.16 205.056C392.256 204.96 392.352 204.96 392.448 204.864C392.64 204.96 392.736 205.056 392.736 205.152Z" fill="white"/>
<path d="M396 207.648C396 207.744 395.904 207.744 395.904 207.744C395.808 207.744 395.808 207.84 395.712 207.84L395.424 208.032L394.752 208.416C394.272 208.704 393.888 208.896 393.408 209.088C393.312 209.088 393.312 208.992 393.312 208.992C393.792 208.704 394.176 208.416 394.56 208.128L395.136 207.744L395.424 207.552C395.52 207.456 395.616 207.456 395.808 207.36C396 207.456 396.096 207.552 396 207.648Z" fill="white"/>
<path d="M399.36 210.144C399.36 210.24 399.264 210.24 399.264 210.24L399.072 210.336C398.976 210.432 398.88 210.528 398.784 210.528C398.592 210.624 398.304 210.816 398.112 210.912C397.632 211.2 397.248 211.392 396.768 211.584C396.672 211.584 396.672 211.488 396.672 211.488C397.152 211.2 397.536 210.912 397.92 210.624L398.496 210.24L398.784 210.048C398.88 209.952 398.976 209.952 399.168 209.856C399.264 209.952 399.36 209.952 399.36 210.144C399.36 210.048 399.36 210.048 399.36 210.144Z" fill="white"/>
<path d="M402.72 212.544C402.72 212.64 402.624 212.64 402.624 212.64L402.432 212.736L402.144 212.928C401.952 213.024 401.664 213.216 401.472 213.312C400.992 213.6 400.608 213.792 400.128 213.984C400.032 213.984 400.032 213.888 400.032 213.888C400.512 213.6 400.896 213.312 401.28 213.024L401.856 212.64L402.144 212.448C402.24 212.352 402.336 212.352 402.528 212.256C402.72 212.352 402.72 212.448 402.72 212.544Z" fill="white"/>
<path d="M406.08 215.04C406.08 215.136 405.984 215.136 405.984 215.136L405.792 215.232L405.504 215.424C405.312 215.616 405.024 215.712 404.832 215.808C404.352 216.096 403.968 216.288 403.488 216.48C403.392 216.48 403.392 216.384 403.392 216.384C403.776 216.096 404.256 215.808 404.64 215.52L405.216 215.136C405.312 215.04 405.408 215.04 405.504 214.944C405.6 214.848 405.696 214.848 405.888 214.752C406.08 214.848 406.176 214.944 406.08 215.04Z" fill="white"/>
<path d="M409.44 217.536C409.44 217.632 409.344 217.632 409.344 217.632L409.152 217.728L408.864 217.92L408.192 218.304C407.712 218.592 407.328 218.784 406.848 218.976C406.752 218.976 406.752 218.88 406.752 218.88C407.232 218.592 407.616 218.304 408 218.016L408.576 217.632L408.864 217.44C408.96 217.344 409.056 217.344 409.152 217.248C409.44 217.344 409.44 217.44 409.44 217.536Z" fill="white"/>
<path d="M412.8 219.936C412.8 220.032 412.704 220.032 412.704 220.032L412.512 220.128L412.224 220.32C412.032 220.416 411.744 220.608 411.552 220.704C411.072 220.992 410.688 221.184 410.208 221.376C410.112 221.376 410.112 221.28 410.112 221.28C410.592 220.992 410.976 220.704 411.36 220.416L411.936 220.032L412.224 219.84C412.32 219.744 412.416 219.744 412.512 219.648C412.704 219.84 412.8 219.84 412.8 219.936Z" fill="white"/>
<path d="M410.112 238.176L374.016 207.456C374.016 207.456 339.168 252 338.592 252.288C338.592 252.288 314.112 258.144 292.32 260.16C288.288 260.544 262.848 252 243.936 267.264L247.488 304.032C284.448 309.312 336 301.344 357.888 294.144C378.624 287.424 410.112 238.176 410.112 238.176Z" fill="#37474F"/>
<path d="M403.2 237.6C395.52 231.264 387.84 225.12 379.872 219.264C377.568 217.632 375.264 216 372.96 214.368C372.864 214.272 372.768 214.464 372.864 214.464C374.784 216 376.704 217.632 378.624 219.168C380.544 220.704 382.464 222.336 384.384 223.872C388.224 226.944 392.256 229.824 396.192 232.8C398.496 234.432 400.8 236.064 403.008 237.696C403.2 237.792 403.2 237.696 403.2 237.6Z" fill="#263238"/>
<path d="M378.72 223.872C372.576 232.032 366.432 240.096 360.384 248.256C357.312 252.288 354.336 256.416 351.264 260.448C349.92 262.272 348.576 263.904 346.368 264.576C345.216 264.864 344.16 265.056 343.008 265.152L339.264 265.632C329.28 266.88 319.2 268.128 309.216 269.376C306.72 269.76 304.224 269.952 301.632 269.952C299.136 269.856 296.64 269.472 294.144 268.992C289.632 268.224 285.12 268.032 280.512 268.224C271.488 268.896 262.752 271.296 254.592 275.232C253.536 275.712 252.576 276.192 251.52 276.768C251.424 276.768 251.52 276.96 251.616 276.864C259.968 272.736 268.992 270.144 278.304 269.184C282.912 268.704 287.424 268.8 292.032 269.472C294.432 269.856 296.832 270.336 299.328 270.624C301.824 270.816 304.32 270.72 306.912 270.432C312 269.952 316.992 269.184 321.984 268.608L337.056 266.784C339.552 266.496 342.048 266.208 344.544 265.824C346.56 265.632 348.48 264.768 350.016 263.424C351.552 261.696 352.896 259.872 354.144 257.952C355.68 255.84 357.216 253.728 358.752 251.712C364.8 243.552 370.752 235.392 376.8 227.136L379.008 224.064C379.008 223.968 378.816 223.776 378.72 223.872Z" fill="#263238"/>
<path d="M357.6 139.872C355.68 141.12 317.856 189.984 317.568 192.768C317.568 193.056 319.776 194.592 325.056 199.392C325.344 199.584 325.536 201.504 325.824 204.384C326.688 215.136 327.456 239.424 327.456 239.424L367.104 229.632L360.288 188.352L358.56 177.504C358.56 177.504 363.264 149.952 363.264 146.88C363.264 143.808 359.52 138.624 357.6 139.872Z" fill="#C95F50"/>
<path d="M357.6 139.872C355.68 141.12 317.856 189.984 317.568 192.768C317.568 193.056 319.776 194.592 325.056 199.392C325.344 199.584 325.536 201.504 325.824 204.384C332.352 201.216 352.224 192 360.288 188.352L358.56 177.6C358.56 177.6 363.264 150.048 363.264 146.976C363.264 143.904 359.52 138.624 357.6 139.872Z" fill="#FFC727"/>
<path d="M326.88 184.32C327.36 184.8 327.84 185.376 328.224 186.048C328.992 187.296 329.472 188.736 329.568 190.176C329.664 191.616 329.376 193.152 328.8 194.496C328.128 195.84 327.264 196.992 326.112 197.952C326.016 197.952 326.016 197.856 326.016 197.856C328.128 195.84 329.088 193.056 328.704 190.176C328.512 188.832 328.032 187.584 327.36 186.432C326.976 185.856 326.592 185.376 326.112 184.896C325.92 184.704 325.632 184.416 325.344 184.224C325.056 184.032 324.864 183.936 324.768 183.552C324.768 183.36 324.864 183.264 325.056 183.168C325.824 183.072 326.496 183.936 326.88 184.32Z" fill="white"/>
<path d="M362.208 154.944C361.248 156 360.096 156.768 358.752 157.056C357.312 157.44 355.968 157.728 354.432 157.728C352.992 157.824 351.552 157.632 350.208 157.344C349.536 157.152 348.864 156.96 348.192 156.768C347.52 156.576 346.848 156.288 346.272 155.904C346.176 155.904 346.176 155.808 346.272 155.712H346.368C346.944 155.808 347.616 156.096 348.192 156.192C348.864 156.384 349.536 156.48 350.208 156.576C351.552 156.768 352.896 156.864 354.24 156.864C356.928 156.864 359.616 156.096 361.824 154.464C361.92 154.368 362.112 154.368 362.208 154.56C362.304 154.656 362.304 154.848 362.208 154.944Z" fill="white"/>
<path d="M357.696 184.32C349.728 188.16 341.76 192 333.792 195.936C331.488 197.088 329.28 198.144 327.072 199.296C326.976 199.296 326.976 199.2 327.072 199.2C334.752 194.688 342.624 190.56 350.688 186.912C352.992 185.856 355.296 184.992 357.696 184.032C357.792 184.032 357.888 184.128 357.888 184.224C357.792 184.224 357.792 184.32 357.696 184.32Z" fill="white"/>
<path d="M328.416 199.2C328.416 199.296 328.512 199.296 328.512 199.392C328.512 199.488 328.512 199.488 328.512 199.584C328.512 199.68 328.512 199.872 328.512 199.968C328.512 200.064 328.512 200.448 328.512 200.736C328.512 201.216 328.512 201.792 328.512 202.272C328.512 202.368 328.416 202.368 328.416 202.272C328.416 201.792 328.32 201.216 328.32 200.736C328.32 200.448 328.32 200.256 328.224 199.968C328.128 199.68 328.224 199.68 328.224 199.584C328.224 199.488 328.224 199.296 328.224 199.2C328.224 199.104 328.224 199.104 328.32 199.008C328.32 199.104 328.416 199.104 328.416 199.2Z" fill="white"/>
<path d="M332.16 197.376C332.16 197.472 332.256 197.472 332.256 197.568C332.256 197.664 332.256 197.664 332.256 197.76C332.256 197.856 332.256 198.048 332.256 198.144C332.256 198.24 332.256 198.72 332.256 198.912C332.256 199.392 332.256 199.968 332.256 200.448C332.256 200.544 332.16 200.544 332.16 200.448C332.16 199.968 332.064 199.392 332.064 198.912C332.064 198.624 332.064 198.432 331.968 198.144C331.872 197.856 331.968 197.856 331.968 197.76C331.968 197.664 331.968 197.472 331.968 197.376C331.968 197.376 332.064 197.376 332.16 197.376Z" fill="white"/>
<path d="M335.904 195.648C335.904 195.648 336 195.744 336 195.84C336 195.936 336 195.936 336 196.032C336 196.128 336 196.32 336 196.416C336 196.704 336 196.992 336 197.184C336 197.664 336 198.24 336 198.72C336 198.816 335.904 198.816 335.904 198.72C335.904 198.24 335.808 197.664 335.808 197.184C335.808 196.896 335.808 196.704 335.712 196.416C335.616 196.128 335.712 196.128 335.712 196.032C335.712 195.936 335.712 195.744 335.712 195.648C335.712 195.552 335.712 195.552 335.808 195.552C335.904 195.552 335.904 195.552 335.904 195.648Z" fill="white"/>
<path d="M339.744 193.824C339.744 193.92 339.84 193.92 339.84 194.016C339.84 194.112 339.84 194.112 339.84 194.208V194.592C339.84 194.88 339.84 195.072 339.84 195.36C339.84 195.84 339.84 196.416 339.84 196.896C339.84 196.992 339.744 196.992 339.744 196.896C339.744 196.416 339.648 195.84 339.648 195.36C339.648 195.072 339.552 194.88 339.552 194.592C339.552 194.304 339.552 194.304 339.552 194.208C339.552 194.112 339.552 193.92 339.552 193.824C339.552 193.728 339.552 193.728 339.648 193.632C339.744 193.536 339.744 193.824 339.744 193.824Z" fill="white"/>
<path d="M343.488 192.096C343.488 192.192 343.584 192.192 343.584 192.288C343.584 192.384 343.584 192.384 343.584 192.48C343.584 192.576 343.584 192.768 343.584 192.864C343.584 193.152 343.584 193.44 343.584 193.632C343.584 194.112 343.584 194.688 343.584 195.168C343.584 195.264 343.488 195.264 343.488 195.168C343.488 194.688 343.392 194.112 343.392 193.632C343.392 193.344 343.392 193.152 343.296 192.864C343.2 192.576 343.296 192.576 343.296 192.48C343.296 192.384 343.296 192.192 343.296 192.096C343.296 192 343.392 192 343.488 192C343.392 192 343.488 192 343.488 192.096Z" fill="white"/>
<path d="M347.232 190.272C347.232 190.368 347.328 190.368 347.328 190.464C347.328 190.56 347.328 190.56 347.328 190.656C347.328 190.752 347.328 190.944 347.328 191.04C347.328 191.136 347.328 191.52 347.328 191.808C347.328 192.288 347.328 192.864 347.328 193.344C347.328 193.44 347.232 193.44 347.232 193.344C347.232 192.864 347.136 192.288 347.136 191.808C347.136 191.52 347.136 191.328 347.04 191.04C346.944 190.752 347.04 190.752 347.04 190.656C347.04 190.56 347.04 190.368 347.04 190.272C347.04 190.272 347.136 190.272 347.232 190.272Z" fill="white"/>
<path d="M350.976 188.544C350.976 188.64 351.072 188.64 351.072 188.736C351.072 188.832 351.072 188.832 351.072 188.928C351.072 189.024 351.072 189.216 351.072 189.312C351.072 189.408 351.072 189.888 351.072 190.08C351.072 190.56 351.072 191.136 351.072 191.616C351.072 191.712 350.976 191.712 350.976 191.616C350.976 191.136 350.88 190.56 350.88 190.08C350.88 189.792 350.88 189.6 350.784 189.312C350.688 189.024 350.784 189.024 350.784 188.928C350.784 188.832 350.784 188.64 350.784 188.544C350.784 188.544 350.88 188.448 350.976 188.544Z" fill="white"/>
<path d="M354.72 186.816C354.72 186.816 354.816 186.912 354.816 187.008C354.816 187.104 354.816 187.104 354.816 187.2C354.816 187.296 354.816 187.488 354.816 187.584C354.816 187.872 354.816 188.16 354.816 188.352C354.816 188.832 354.816 189.408 354.816 189.888C354.816 189.888 354.72 189.984 354.72 189.888C354.72 189.408 354.624 188.832 354.624 188.352C354.624 188.064 354.624 187.872 354.528 187.584C354.432 187.296 354.528 187.296 354.528 187.2C354.528 187.104 354.528 186.912 354.528 186.816C354.528 186.72 354.528 186.72 354.624 186.72C354.72 186.624 354.72 186.72 354.72 186.816Z" fill="white"/>
<path d="M358.56 184.992C358.56 184.992 358.656 185.088 358.656 185.184C358.656 185.28 358.656 185.28 358.656 185.376C358.656 185.472 358.656 185.664 358.656 185.76C358.656 186.048 358.656 186.24 358.656 186.528C358.656 187.008 358.656 187.584 358.656 188.064C358.656 188.16 358.56 188.16 358.56 188.064C358.56 187.584 358.464 187.008 358.464 186.528C358.464 186.24 358.464 186.048 358.368 185.76C358.272 185.472 358.368 185.472 358.368 185.376C358.368 185.28 358.368 185.088 358.368 184.992C358.368 184.896 358.368 184.896 358.464 184.8C358.56 184.704 358.56 184.896 358.56 184.992Z" fill="white"/>
<path d="M362.4 199.968L322.368 208.512C322.368 208.512 327.168 266.4 326.976 267.072C326.976 267.072 306.528 269.76 290.208 268.896C290.208 268.896 262.752 255.072 243.936 275.712L241.248 311.904C293.568 318.24 363.648 315.264 372.864 297.504C383.04 278.016 362.4 199.968 362.4 199.968Z" fill="#37474F"/>
<path d="M326.88 266.784C322.464 266.784 314.976 267.648 310.56 267.744C306.144 267.84 301.728 268.224 297.312 268.416C294.816 268.512 292.608 268.416 290.112 268.608C290.112 268.608 290.016 268.704 290.112 268.704C298.848 269.184 307.584 268.992 316.224 268.224C318.72 268.032 324.384 267.36 326.88 266.976C327.168 267.072 327.36 266.784 326.88 266.784Z" fill="#263238"/>
<path d="M287.712 264.96C286.08 263.136 284.256 261.504 282.24 260.16C282.144 260.064 282.048 260.256 282.144 260.256C283.872 261.888 285.504 263.712 287.04 265.536C288.672 267.36 290.208 269.28 291.648 271.296L287.712 264.96ZM291.744 271.296C290.688 269.088 289.344 266.976 287.712 264.96L291.744 271.296Z" fill="#263238"/>
<path d="M375.648 270.432C375.648 268.416 375.456 266.496 375.264 264.48C374.976 260.544 374.592 256.704 374.016 252.768C372.96 244.896 371.616 237.12 369.888 229.44C369.408 227.328 368.928 225.12 368.352 223.008C367.872 220.8 367.2 218.688 366.528 216.48C366.432 216.288 366.144 216.384 366.144 216.576C366.432 218.496 366.912 220.32 367.392 222.24C367.872 224.16 368.256 226.08 368.64 227.904C369.504 231.744 370.176 235.68 370.944 239.616C372.288 247.392 373.44 255.168 374.304 263.04C374.592 265.248 374.784 267.456 374.976 269.664C375.072 270.72 375.552 279.552 375.552 280.704C375.552 280.8 375.744 280.8 375.648 280.704C375.648 279.648 375.744 273.312 375.648 270.432Z" fill="#263238"/>
<path d="M326.88 260.64C326.784 259.584 326.4 255.36 326.016 254.592H325.92C325.632 255.552 326.016 259.776 326.112 260.928C326.208 262.08 326.784 266.688 326.976 266.976C326.976 266.976 327.072 267.072 327.072 266.976C327.168 264.864 327.072 262.752 326.88 260.64Z" fill="#263238"/>
<path d="M363.744 276.672C363.552 269.664 363.072 262.56 362.4 255.552C360.96 241.728 358.752 228 356.256 214.272C355.968 212.544 355.68 210.912 355.392 209.184C355.392 209.088 355.2 209.088 355.296 209.184C357.6 222.912 359.904 236.544 361.536 250.368C362.304 257.184 362.88 264.096 363.168 271.008C363.264 274.368 363.36 277.728 363.36 281.088C363.456 283.872 363.168 286.656 362.592 289.44C362.016 292.128 360.768 294.72 358.944 296.736C356.928 298.656 354.528 300.192 351.84 300.96C348.96 301.92 345.984 302.688 343.008 303.168C339.744 303.84 336.384 304.32 333.024 304.8C319.584 306.528 306.144 306.528 292.608 306.24C278.784 305.952 264.96 305.472 251.232 305.28C249.504 305.28 247.776 305.28 246.048 305.184C245.952 305.184 245.952 305.28 246.048 305.28C253.152 305.472 260.256 305.76 267.456 306.048C274.656 306.336 281.568 306.528 288.576 306.624C302.208 307.008 315.84 307.2 329.472 305.76C336.096 305.088 342.624 304.032 348.96 302.4C351.648 301.728 354.24 300.768 356.64 299.328C358.944 297.888 360.672 295.872 361.824 293.472C364.224 288.384 363.84 282.24 363.744 276.672Z" fill="#263238"/>
<path d="M362.4 206.208C352.608 207.744 342.816 209.376 333.216 211.488C330.432 212.064 327.744 212.832 324.96 213.408C324.864 213.408 324.864 213.6 324.96 213.504C327.36 213.024 329.856 212.736 332.352 212.352C334.848 211.968 337.248 211.584 339.648 211.104C344.544 210.24 349.344 209.184 354.144 208.128C356.928 207.552 359.616 206.88 362.4 206.304C362.496 206.4 362.496 206.4 362.4 206.208C362.496 206.304 362.496 206.208 362.4 206.208Z" fill="#263238"/>
<path d="M156.192 226.752L162.144 254.016C162.432 254.784 161.952 255.456 161.184 255.456L147.264 254.976C146.4 254.88 145.632 254.304 145.344 253.44L139.392 226.176C139.104 225.408 139.584 224.736 140.352 224.736L154.272 225.216C155.136 225.312 155.904 225.888 156.192 226.752Z" fill="#263238"/>
<path d="M154.56 226.656L160.512 253.92C160.8 254.688 160.32 255.36 159.552 255.36L145.632 254.88C144.768 254.784 144 254.208 143.712 253.344L137.76 226.08C137.472 225.312 137.952 224.64 138.72 224.64L152.64 225.12C153.504 225.216 154.272 225.792 154.56 226.656Z" fill="#37474F"/>
<path d="M150.72 227.808C150.72 228.48 151.2 228.96 151.872 229.056C152.544 229.056 153.024 228.576 153.12 227.904C153.12 227.232 152.64 226.752 151.968 226.656C151.296 226.56 150.72 227.136 150.72 227.808Z" fill="#263238"/>
<path d="M199.872 269.76C191.616 286.368 173.376 307.872 165.984 307.776C162.528 307.776 156.288 308.448 151.776 304.32C141.984 295.296 134.016 278.4 132.48 268.8C131.904 265.344 148.704 258.336 151.104 261.216C156.672 267.84 163.008 280.8 164.064 280.704C167.808 280.512 182.784 268.608 193.248 260.256C206.016 250.08 203.232 263.136 199.872 269.76Z" fill="#C95F50"/>
<path d="M132.576 251.136C134.496 244.224 136.032 242.784 134.592 236.064C133.632 231.648 136.032 229.248 139.008 232.8C143.904 238.656 143.328 248.064 142.176 251.232L132.576 251.136Z" fill="#C95F50"/>
<path d="M133.344 271.776C133.344 271.776 130.464 262.08 131.808 254.496C132.768 249.312 135.936 238.176 150.72 232.608C154.176 231.264 160.128 231.84 155.232 236.16C151.776 239.136 148.608 240 146.88 242.112C146.88 242.112 154.368 243.744 155.52 247.296C156.576 250.368 157.344 253.632 157.92 256.8C157.344 257.088 156.768 257.28 156.192 257.376C156.192 257.376 156.96 260.832 154.368 265.536L133.344 271.776Z" fill="#C95F50"/>
<path d="M133.44 249.696C135.648 247.968 140.256 244.32 145.056 242.688C150.432 240.864 161.184 238.752 162.528 242.784C163.488 245.664 159.456 246.816 159.456 246.816C159.456 246.816 164.064 246.912 164.352 249.696C164.64 252.288 161.472 252.96 161.472 252.96C161.472 252.96 164.256 253.536 164.064 256.032C163.776 259.104 157.92 257.472 155.04 260.256C154.272 260.928 133.44 249.696 133.44 249.696Z" fill="#C95F50"/>
<path d="M146.016 248.64C150.144 246.624 154.752 245.952 159.264 246.72C159.36 246.72 159.456 246.816 159.36 246.816C154.848 246.912 150.336 247.584 146.016 248.64C146.016 248.736 146.016 248.64 146.016 248.64Z" fill="#263238"/>
<path d="M148.032 254.016C152.256 252.384 156.96 252 161.376 252.864C161.472 252.864 161.568 252.96 161.376 252.96C156.864 252.864 152.352 253.248 148.032 254.016C147.936 254.112 147.936 254.016 148.032 254.016Z" fill="#263238"/>
<path d="M192 287.808L181.632 268.704C185.856 264.864 190.176 261.312 194.784 257.952C201.408 253.44 204.672 254.88 202.176 264.384C200.544 270.816 192 287.808 192 287.808Z" fill="#FFC727"/>
<path d="M197.952 259.968C197.952 260.352 197.664 260.64 197.28 260.64C196.896 260.64 196.608 260.352 196.608 259.968C196.608 259.584 196.896 259.296 197.28 259.296C197.568 259.2 197.952 259.584 197.952 259.968ZM189.696 270.624C189.312 270.624 189.024 270.912 189.024 271.296C189.024 271.68 189.312 271.968 189.696 271.968C190.08 271.968 190.368 271.68 190.368 271.296C190.368 271.008 190.08 270.624 189.696 270.624ZM197.184 270.624C196.8 270.624 196.512 270.912 196.512 271.296C196.512 271.68 196.8 271.968 197.184 271.968C197.568 271.968 197.856 271.68 197.856 271.296C197.952 271.008 197.568 270.624 197.184 270.624ZM185.856 265.056L185.184 265.632V265.728C185.184 266.112 185.472 266.4 185.856 266.4C186.24 266.4 186.528 266.112 186.528 265.728C186.624 265.344 186.336 265.056 185.856 265.056ZM193.44 265.056C193.056 265.056 192.768 265.344 192.768 265.728C192.768 266.112 193.056 266.4 193.44 266.4C193.824 266.4 194.112 266.112 194.112 265.728C194.112 265.344 193.824 265.056 193.44 265.056ZM201.024 265.056C200.64 265.056 200.352 265.344 200.352 265.728C200.352 266.112 200.64 266.4 201.024 266.496C201.408 266.496 201.696 266.208 201.792 265.728C201.696 265.344 201.408 265.056 201.024 265.056ZM189.696 282.048C189.408 282.048 189.216 282.144 189.12 282.432L189.696 283.488C190.08 283.488 190.368 283.2 190.368 282.72C190.368 282.432 190.08 282.048 189.696 282.048ZM185.856 276.48L186.432 277.536C186.528 277.44 186.528 277.248 186.528 277.152C186.624 276.768 186.24 276.48 185.856 276.48ZM193.44 276.48C193.056 276.48 192.768 276.768 192.768 277.152C192.768 277.536 193.056 277.824 193.44 277.824C193.824 277.824 194.112 277.536 194.112 277.152C194.112 276.768 193.824 276.48 193.44 276.48Z" fill="white"/>
<path d="M192.768 284.928C191.424 282.048 190.08 279.168 188.64 276.384C187.872 274.944 187.104 273.6 186.336 272.256C185.568 270.912 184.608 269.568 183.84 268.224C183.84 268.128 183.648 268.224 183.744 268.32C184.608 269.664 185.184 271.104 185.952 272.544C186.72 273.984 187.488 275.328 188.16 276.672C189.6 279.456 191.136 282.24 192.576 285.024C192.672 285.024 192.768 284.928 192.768 284.928Z" fill="#263238"/>
<path d="M202.176 264.384C200.448 270.816 192 287.712 192 287.712L187.968 280.224L200.832 255.36C203.136 255.744 203.712 258.528 202.176 264.384Z" fill="#263238"/>
<path d="M202.848 221.664C204.576 218.4 209.376 213.216 215.328 214.464C228 217.056 227.424 236.064 237.12 247.68C248.832 261.792 249.696 274.176 240.384 276.48C229.92 279.072 219.456 268.32 219.168 244.608C218.976 229.728 214.56 223.2 211.488 223.776C209.568 224.16 207.744 225.12 206.208 226.464L202.848 221.664Z" fill="#263238"/>
<path d="M218.784 236.448C218.976 238.752 218.88 241.152 218.88 243.552C218.88 245.952 218.88 248.256 218.88 250.656C218.88 253.056 219.072 255.36 219.36 257.664C219.648 259.968 220.128 262.272 220.8 264.48C221.472 266.688 222.624 268.704 224.064 270.528C225.6 272.256 227.424 273.792 229.536 274.848C231.648 276 233.856 276.672 236.256 276.768C237.408 276.864 238.656 276.768 239.808 276.48C240.384 276.384 240.96 276.192 241.536 276C242.112 275.808 242.688 275.52 243.168 275.232C242.208 276 241.056 276.48 239.904 276.768C238.752 277.056 237.504 277.248 236.256 277.248C235.008 277.248 233.76 277.152 232.608 276.864C231.456 276.576 230.208 276.096 229.152 275.616C228.096 275.04 227.04 274.464 225.984 273.696L225.216 273.12L224.544 272.544C224.064 272.16 223.68 271.68 223.2 271.2C221.664 269.28 220.416 267.168 219.648 264.864C218.304 260.256 217.728 255.456 217.92 250.656C217.92 248.256 218.016 245.952 218.208 243.552C218.496 241.152 218.688 238.752 218.784 236.448Z" fill="#263238"/>
<path d="M203.616 220.32C204.48 218.976 205.632 217.728 206.784 216.576C208.032 215.52 209.472 214.752 211.008 214.368C212.544 213.984 214.176 213.888 215.712 214.176C216.48 214.368 217.248 214.56 218.016 214.848C218.784 215.136 219.456 215.424 220.128 215.904C221.472 216.768 222.624 217.92 223.488 219.168C224.448 220.512 225.216 221.856 225.792 223.392C227.136 226.368 228.096 229.44 229.248 232.608C230.304 235.776 231.648 238.848 233.184 241.728C234.816 244.608 236.736 247.296 238.848 249.888C240.96 252.384 242.88 255.072 244.608 257.856C245.472 259.2 246.144 260.736 246.624 262.272L246.912 263.424C247.008 263.808 247.008 264.192 247.104 264.672L247.2 265.248V265.824V267.072C247.488 263.712 246.72 260.352 244.992 257.472C243.36 254.592 241.536 251.808 239.424 249.216C237.504 246.624 235.68 243.84 234.048 241.056C232.512 238.176 231.264 235.2 230.208 232.032C229.056 228.96 228.096 225.792 226.656 222.816C225.984 221.28 225.12 219.84 224.064 218.496C223.104 217.152 221.856 216 220.416 215.04C219.648 214.56 218.88 214.272 218.112 213.984C217.344 213.696 216.48 213.504 215.616 213.408C212.256 212.832 208.704 213.984 206.304 216.384C205.536 217.536 204.48 218.88 203.616 220.32Z" fill="#263238"/>
<path d="M200.064 223.584C200.256 222.432 201.312 220.992 202.08 220.896C202.848 220.8 208.128 224.16 208.416 225.696C208.704 227.232 205.92 228.096 205.92 228.096L200.064 223.584Z" fill="#FFC727"/>
<path d="M242.208 311.424C242.208 311.424 262.752 292.704 247.584 263.232C247.584 263.232 237.984 264.768 235.392 264.288C227.712 262.752 221.952 258.528 213.216 255.264C204.48 252 198.336 254.592 194.784 260.544C193.92 261.984 190.368 281.088 193.536 288.864C196.032 294.912 206.016 296.736 206.016 296.736C206.016 296.736 225.408 313.248 242.208 311.424Z" fill="#FFC727"/>
<path d="M197.952 259.968C197.952 260.352 197.664 260.64 197.28 260.64C196.896 260.64 196.608 260.352 196.608 259.968C196.608 259.584 196.896 259.296 197.28 259.296C197.568 259.2 197.952 259.584 197.952 259.968ZM204.768 259.2C204.384 259.2 204.096 259.488 204 259.872C204 260.256 204.288 260.544 204.768 260.64C205.152 260.64 205.44 260.352 205.44 259.872C205.536 259.584 205.248 259.2 204.768 259.2C204.864 259.2 204.768 259.2 204.768 259.2ZM212.352 259.2C211.968 259.2 211.68 259.488 211.68 259.872C211.68 260.256 211.968 260.544 212.352 260.544C212.736 260.544 213.024 260.256 213.024 259.872C213.12 259.584 212.832 259.2 212.352 259.2ZM219.936 259.2C219.552 259.2 219.264 259.488 219.168 259.872C219.168 260.256 219.456 260.544 219.936 260.64C220.32 260.64 220.608 260.352 220.608 259.872C220.704 259.584 220.32 259.2 219.936 259.2ZM200.64 254.976C200.736 255.072 200.928 255.072 201.024 255.072C201.408 255.072 201.696 254.88 201.696 254.496C201.312 254.592 201.024 254.784 200.64 254.976ZM209.28 254.112C208.896 254.016 208.416 253.92 208.032 253.92C207.936 254.016 207.84 254.208 207.936 254.304C207.936 254.688 208.224 254.976 208.608 254.976C208.992 254.976 209.28 254.688 209.28 254.304C209.28 254.304 209.28 254.208 209.28 254.112ZM197.28 270.624C196.896 270.624 196.608 270.912 196.608 271.296C196.608 271.68 196.896 271.968 197.28 271.968C197.664 271.968 197.952 271.68 197.952 271.296C197.952 271.008 197.664 270.624 197.28 270.624ZM204.864 270.624C204.48 270.624 204.192 270.912 204.192 271.296C204.192 271.68 204.48 271.968 204.864 271.968C205.248 271.968 205.536 271.68 205.536 271.296C205.536 271.008 205.248 270.624 204.864 270.624ZM212.352 270.624C211.968 270.624 211.68 270.912 211.68 271.296C211.68 271.68 211.968 271.968 212.352 271.968C212.736 271.968 213.024 271.68 213.024 271.296C213.12 271.008 212.736 270.624 212.352 270.624ZM219.936 270.624C219.552 270.624 219.264 270.912 219.264 271.296C219.264 271.68 219.552 271.968 219.936 271.968C220.32 271.968 220.608 271.68 220.608 271.296C220.704 271.008 220.32 270.624 219.936 270.624ZM227.52 270.624C227.136 270.624 226.848 270.912 226.848 271.296C226.848 271.68 227.136 271.968 227.52 271.968C227.904 271.968 228.192 271.68 228.192 271.296C228.288 271.008 227.904 270.624 227.52 270.624ZM235.104 270.624C234.72 270.624 234.432 270.912 234.432 271.296C234.432 271.68 234.72 271.968 235.104 271.968C235.488 271.968 235.776 271.68 235.776 271.296C235.776 271.008 235.488 270.624 235.104 270.624ZM242.688 270.624C242.304 270.624 242.016 270.912 242.016 271.296C242.016 271.68 242.304 271.968 242.688 271.968C243.072 271.968 243.36 271.68 243.36 271.296C243.36 271.008 243.072 270.624 242.688 270.624ZM250.272 270.624C249.888 270.624 249.6 270.912 249.6 271.296C249.6 271.68 249.888 271.968 250.272 271.968C250.656 271.968 250.944 271.68 250.944 271.296C250.944 271.008 250.656 270.624 250.272 270.624ZM193.632 265.056C193.536 265.536 193.44 265.92 193.344 266.496C193.728 266.496 194.016 266.208 194.016 265.728C194.112 265.44 193.92 265.152 193.632 265.056ZM201.024 265.056C200.64 265.056 200.352 265.344 200.352 265.728C200.352 266.112 200.64 266.4 201.024 266.496C201.408 266.496 201.696 266.208 201.792 265.728C201.792 265.344 201.408 265.056 201.024 265.056ZM208.608 265.056C208.224 265.056 207.936 265.344 207.936 265.728C207.936 266.112 208.224 266.4 208.608 266.4C208.992 266.4 209.28 266.112 209.28 265.728C209.376 265.44 208.992 265.056 208.608 265.056ZM216.192 265.056C215.808 265.056 215.52 265.344 215.52 265.728C215.52 266.112 215.808 266.4 216.192 266.496C216.576 266.496 216.864 266.208 216.96 265.728C216.864 265.344 216.576 265.056 216.192 265.056ZM223.776 265.056C223.392 265.056 223.104 265.344 223.104 265.728C223.104 266.112 223.392 266.4 223.776 266.4C224.16 266.4 224.448 266.112 224.448 265.728C224.448 265.44 224.16 265.056 223.776 265.056C223.776 265.056 223.68 265.056 223.776 265.056ZM231.36 265.056C230.976 265.056 230.688 265.344 230.592 265.728C230.592 266.112 230.88 266.4 231.36 266.496C231.744 266.496 232.032 266.208 232.032 265.728C232.032 265.44 231.744 265.056 231.36 265.056ZM238.848 265.056C238.464 265.056 238.176 265.344 238.176 265.728C238.176 266.112 238.464 266.4 238.848 266.4C239.232 266.4 239.52 266.112 239.52 265.728C239.616 265.44 239.328 265.056 238.848 265.056C238.944 265.056 238.848 265.056 238.848 265.056ZM246.432 265.056C246.048 265.056 245.76 265.344 245.664 265.728C245.664 266.112 245.952 266.4 246.432 266.496C246.816 266.496 247.104 266.208 247.104 265.728C247.2 265.44 246.912 265.056 246.432 265.056ZM197.28 282.144C196.896 282.144 196.608 282.432 196.608 282.816C196.608 283.2 196.896 283.488 197.28 283.488C197.664 283.488 197.952 283.2 197.952 282.816C197.952 282.432 197.664 282.048 197.28 282.144C197.28 282.048 197.28 282.048 197.28 282.144ZM204.864 282.144C204.48 282.144 204.192 282.432 204.096 282.816C204.096 283.2 204.384 283.488 204.864 283.584C205.248 283.584 205.536 283.296 205.536 282.816C205.536 282.432 205.248 282.048 204.864 282.144C204.864 282.048 204.864 282.048 204.864 282.144ZM212.352 282.144C211.968 282.144 211.68 282.432 211.68 282.816C211.68 283.2 211.968 283.488 212.352 283.488C212.736 283.488 213.024 283.2 213.024 282.816C213.12 282.432 212.832 282.048 212.352 282.144C212.448 282.048 212.352 282.048 212.352 282.144ZM219.936 282.144C219.552 282.144 219.264 282.432 219.168 282.816C219.168 283.2 219.456 283.488 219.936 283.584C220.32 283.584 220.608 283.296 220.608 282.816C220.704 282.432 220.416 282.048 219.936 282.144C219.936 282.048 219.936 282.048 219.936 282.144ZM227.52 282.144C227.136 282.144 226.848 282.432 226.848 282.816C226.848 283.2 227.136 283.488 227.52 283.488C227.904 283.488 228.192 283.2 228.192 282.816C228.288 282.432 227.904 282.048 227.52 282.144C227.52 282.048 227.52 282.048 227.52 282.144ZM235.104 282.144C234.72 282.144 234.432 282.432 234.432 282.816C234.432 283.2 234.72 283.488 235.104 283.488C235.488 283.488 235.776 283.2 235.776 282.816C235.872 282.432 235.488 282.048 235.104 282.144C235.104 282.048 235.104 282.048 235.104 282.144ZM242.688 282.144C242.304 282.144 242.016 282.432 242.016 282.816C242.016 283.2 242.304 283.488 242.688 283.584C243.072 283.584 243.36 283.296 243.456 282.816C243.36 282.432 243.072 282.048 242.688 282.144C242.688 282.048 242.688 282.048 242.688 282.144ZM250.272 282.144C249.888 282.144 249.6 282.432 249.6 282.816C249.6 283.2 249.888 283.488 250.272 283.488C250.656 283.488 250.944 283.2 250.944 282.816C250.944 282.432 250.656 282.048 250.272 282.144C250.272 282.048 250.272 282.048 250.272 282.144ZM193.44 276.48C193.056 276.48 192.768 276.768 192.768 277.152C192.768 277.536 193.056 277.824 193.44 277.824C193.824 277.824 194.112 277.536 194.112 277.152C194.112 276.768 193.824 276.48 193.44 276.48ZM201.024 276.48C200.64 276.48 200.352 276.768 200.352 277.152C200.352 277.536 200.64 277.824 201.024 277.824C201.408 277.824 201.696 277.536 201.696 277.152C201.696 276.768 201.408 276.48 201.024 276.48ZM208.608 276.48C208.224 276.48 207.936 276.768 207.936 277.152C207.936 277.536 208.224 277.824 208.608 277.824C208.992 277.824 209.28 277.536 209.28 277.152C209.28 276.768 208.992 276.48 208.608 276.48ZM216.192 276.48C215.808 276.48 215.52 276.768 215.52 277.152C215.52 277.536 215.808 277.824 216.192 277.824C216.576 277.824 216.864 277.536 216.864 277.152C216.864 276.768 216.576 276.48 216.192 276.48ZM223.68 276.48C223.296 276.48 223.008 276.768 223.008 277.152C223.008 277.536 223.296 277.824 223.68 277.824C224.064 277.824 224.352 277.536 224.352 277.152C224.448 276.768 224.064 276.48 223.68 276.48ZM231.264 276.48C230.88 276.48 230.592 276.768 230.592 277.152C230.592 277.536 230.88 277.824 231.264 277.824C231.648 277.824 231.936 277.536 231.936 277.152C232.032 276.768 231.648 276.48 231.264 276.48ZM238.848 276.48C238.464 276.48 238.176 276.768 238.176 277.152C238.176 277.536 238.464 277.824 238.848 277.824C239.232 277.824 239.52 277.536 239.52 277.152C239.616 276.768 239.232 276.48 238.848 276.48ZM246.432 276.48C246.048 276.48 245.76 276.768 245.76 277.152C245.76 277.536 246.048 277.824 246.432 277.824C246.816 277.824 247.104 277.536 247.104 277.152C247.104 276.768 246.816 276.48 246.432 276.48ZM204.768 293.472C204.384 293.472 204.096 293.76 204.096 294.144C204.096 294.528 204.384 294.816 204.768 294.816C205.152 294.816 205.44 294.528 205.44 294.144C205.536 293.856 205.152 293.472 204.768 293.472ZM212.352 293.472C211.968 293.472 211.68 293.76 211.68 294.144C211.68 294.528 211.968 294.816 212.352 294.816C212.736 294.816 213.024 294.528 213.024 294.144C213.12 293.856 212.736 293.472 212.352 293.472ZM219.936 293.472C219.552 293.472 219.264 293.76 219.264 294.144C219.264 294.528 219.552 294.816 219.936 294.816C220.32 294.816 220.608 294.528 220.608 294.144C220.608 293.856 220.32 293.472 219.936 293.472ZM227.52 293.472C227.136 293.472 226.848 293.76 226.848 294.144C226.848 294.528 227.136 294.816 227.52 294.816C227.904 294.816 228.192 294.528 228.192 294.144C228.192 293.856 227.904 293.472 227.52 293.472ZM235.104 293.472C234.72 293.472 234.432 293.76 234.432 294.144C234.432 294.528 234.72 294.816 235.104 294.816C235.488 294.816 235.776 294.528 235.776 294.144C235.776 293.856 235.488 293.472 235.104 293.472ZM242.688 293.472C242.304 293.472 242.016 293.76 242.016 294.144C242.016 294.528 242.304 294.816 242.688 294.816C243.072 294.816 243.36 294.528 243.36 294.144C243.36 293.856 243.072 293.472 242.688 293.472ZM250.176 293.472C249.792 293.472 249.504 293.76 249.504 294.144C249.504 294.528 249.792 294.816 250.176 294.816C250.56 294.816 250.848 294.528 250.848 294.144C250.944 293.856 250.656 293.472 250.176 293.472ZM193.44 287.904C193.344 287.904 193.248 287.904 193.152 288C193.248 288.288 193.344 288.576 193.44 288.864C193.536 288.96 193.536 289.152 193.632 289.248C193.92 289.152 194.112 288.864 194.112 288.576C194.112 288.192 193.824 287.904 193.44 287.904ZM201.024 287.904C200.64 287.904 200.256 288.192 200.256 288.672C200.256 289.152 200.544 289.44 201.024 289.44C201.504 289.44 201.792 289.152 201.792 288.672C201.696 288.192 201.408 287.904 201.024 287.904ZM208.608 287.904C208.224 287.904 207.84 288.192 207.84 288.576C207.84 288.96 208.128 289.344 208.512 289.344C208.896 289.344 209.28 289.056 209.28 288.672C209.28 288.192 208.992 287.904 208.608 287.904ZM216.192 287.904C215.808 287.904 215.424 288.192 215.424 288.672C215.424 289.152 215.712 289.44 216.192 289.44C216.672 289.44 216.96 289.152 216.96 288.672C216.864 288.192 216.576 287.904 216.192 287.904ZM223.68 287.904C223.296 287.904 222.912 288.192 222.912 288.576C222.912 288.96 223.2 289.344 223.584 289.344C223.968 289.344 224.352 289.056 224.352 288.672C224.448 288.192 224.16 287.904 223.68 287.904ZM231.264 287.904C230.88 287.904 230.496 288.096 230.496 288.576C230.496 288.96 230.688 289.344 231.168 289.344C231.264 289.344 231.264 289.344 231.36 289.344C231.744 289.344 232.032 288.96 232.032 288.576C231.84 288.192 231.648 287.904 231.264 287.904ZM238.848 287.904C238.464 287.904 238.08 288.192 238.08 288.576C238.08 288.96 238.368 289.344 238.752 289.344C239.136 289.344 239.52 289.056 239.52 288.672C239.616 288.192 239.232 287.904 238.848 287.904ZM246.432 287.904C246.048 287.904 245.664 288.096 245.664 288.576C245.664 288.96 245.856 289.344 246.336 289.344C246.432 289.344 246.432 289.344 246.528 289.344C246.912 289.344 247.2 288.96 247.2 288.576C247.008 288.192 246.72 287.904 246.432 287.904ZM219.936 304.896C219.552 304.896 219.264 305.184 219.264 305.568C219.648 305.76 220.032 305.952 220.416 306.144C220.608 306.048 220.704 305.856 220.704 305.568C220.608 305.28 220.32 304.896 219.936 304.896ZM227.52 304.896C227.136 304.896 226.848 305.184 226.848 305.568C226.848 305.952 227.136 306.24 227.52 306.24C227.904 306.24 228.192 305.952 228.192 305.568C228.192 305.28 227.904 304.896 227.52 304.896ZM235.104 304.896C234.72 304.896 234.432 305.184 234.432 305.568C234.432 305.952 234.72 306.24 235.104 306.24C235.488 306.24 235.776 305.952 235.776 305.568C235.776 305.28 235.488 304.896 235.104 304.896ZM242.688 304.896C242.304 304.896 242.016 305.184 242.016 305.568C242.016 305.952 242.304 306.24 242.688 306.336C243.072 306.336 243.36 306.048 243.456 305.568C243.36 305.28 243.072 304.896 242.688 304.896ZM216.192 299.328C215.808 299.328 215.52 299.616 215.52 300C215.52 300.384 215.808 300.672 216.192 300.672C216.576 300.672 216.864 300.384 216.864 300C216.864 299.616 216.576 299.328 216.192 299.328ZM223.68 299.328C223.296 299.328 223.008 299.616 223.008 300C223.008 300.384 223.296 300.672 223.68 300.672C224.064 300.672 224.352 300.384 224.352 300C224.448 299.616 224.16 299.328 223.68 299.328ZM231.264 299.328C230.88 299.328 230.592 299.616 230.592 300C230.592 300.384 230.88 300.672 231.264 300.672C231.648 300.672 231.936 300.384 231.936 300C232.032 299.616 231.648 299.328 231.264 299.328ZM238.848 299.328C238.464 299.328 238.176 299.616 238.176 300C238.176 300.384 238.464 300.672 238.848 300.672C239.232 300.672 239.52 300.384 239.52 300C239.616 299.616 239.232 299.328 238.848 299.328ZM246.432 299.328C246.048 299.328 245.76 299.616 245.76 300C245.76 300.384 246.048 300.672 246.432 300.672C246.816 300.672 247.104 300.384 247.104 300C247.104 299.616 246.816 299.328 246.432 299.328ZM238.848 310.752C238.464 310.752 238.176 311.04 238.176 311.52V311.616H239.616V311.52C239.52 311.04 239.232 310.752 238.848 310.752Z" fill="white"/>
<path d="M217.344 261.504C227.04 278.112 239.424 305.664 231.744 310.464C219.168 318.432 185.088 319.584 177.216 319.488C173.856 319.488 170.016 297.024 172.512 294.528C175.008 292.032 210.624 294.528 211.2 292.416C211.488 291.168 209.952 280.32 208.224 266.784C206.112 251.04 214.56 256.704 217.344 261.504Z" fill="#C95F50"/>
<path d="M178.56 293.472C178.56 293.472 168.48 292.128 161.76 291.552C158.016 291.264 151.584 291.264 148.8 292.224C144.576 293.76 127.776 302.784 129.888 306.912C131.808 310.656 145.248 301.056 145.248 301.056C145.248 301.056 130.848 309.504 133.92 313.632C136.992 317.76 150.816 304.8 150.816 304.8C150.816 304.8 136.224 313.824 140.064 317.568C143.04 320.352 156.096 309.408 156.096 309.408C156.096 309.408 143.616 317.28 146.496 320.256C149.664 323.616 162.432 314.208 162.432 314.208C171.072 320.544 177.792 320.064 182.496 319.2C183.648 318.912 178.56 293.472 178.56 293.472Z" fill="#C95F50"/>
<path d="M150.048 297.696C148.32 298.656 146.592 299.616 144.864 300.672C143.136 301.728 141.6 302.88 140.064 304.128C138.048 305.664 136.224 307.488 134.592 309.504C137.76 306.144 143.52 302.208 145.152 301.152C146.784 300.096 148.32 298.848 150.048 297.696Z" fill="#263238"/>
<path d="M154.08 303.552C151.968 304.8 149.76 306.048 147.648 307.392C145.536 308.736 143.712 310.272 141.696 311.808C141.504 311.904 141.6 312 141.792 311.808C143.808 310.368 145.824 309.216 147.936 307.776C150.048 306.336 151.968 304.896 154.08 303.552C154.08 303.648 154.08 303.552 154.08 303.552Z" fill="#263238"/>
<path d="M158.4 307.968C155.04 309.888 151.872 312.096 148.992 314.688C148.896 314.784 148.992 314.88 149.184 314.688C152.256 312.384 154.656 310.56 158.496 308.064C158.496 308.064 158.496 307.968 158.4 307.968Z" fill="#263238"/>
<path d="M188.16 293.184C186.72 293.088 181.728 293.376 178.464 293.088C170.88 292.416 160.32 290.976 156.48 290.784C151.968 290.592 148.896 291.36 146.88 292.8C146.112 293.376 145.824 293.76 146.592 293.28C149.952 291.552 152.544 291.168 157.344 291.36C160.704 291.456 170.784 292.896 178.368 293.472C181.632 293.664 184.896 293.568 188.16 293.376C188.256 293.28 188.256 293.184 188.16 293.184Z" fill="#263238"/>
<path d="M229.632 282.528L208.128 279.648C208.128 279.648 206.88 268.8 207.072 262.752C207.36 254.688 210.336 252.864 216.672 260.544C220.896 265.632 229.632 282.528 229.632 282.528Z" fill="#FFC727"/>
<path d="M213.12 259.968C213.12 260.352 212.832 260.64 212.448 260.64C212.064 260.64 211.776 260.352 211.776 259.968C211.776 259.584 212.064 259.296 212.448 259.296C212.832 259.2 213.12 259.584 213.12 259.968ZM212.448 270.624C212.064 270.624 211.776 270.912 211.776 271.296C211.776 271.68 212.064 271.968 212.448 271.968C212.832 271.968 213.12 271.68 213.12 271.296C213.12 271.008 212.832 270.624 212.448 270.624C212.352 270.624 212.352 270.624 212.448 270.624ZM219.936 270.624C219.552 270.624 219.264 270.912 219.264 271.296C219.264 271.68 219.552 271.968 219.936 271.968C220.32 271.968 220.608 271.68 220.608 271.296C220.704 271.008 220.416 270.624 219.936 270.624ZM208.608 265.056C208.224 265.056 207.936 265.344 207.936 265.728C207.936 266.112 208.224 266.4 208.608 266.4C208.992 266.4 209.28 266.112 209.28 265.728C209.376 265.344 208.992 265.056 208.608 265.056ZM216.192 265.056C215.808 265.056 215.52 265.344 215.52 265.728C215.52 266.112 215.808 266.4 216.192 266.496C216.576 266.496 216.864 266.208 216.96 265.728C216.864 265.344 216.576 265.056 216.192 265.056ZM227.52 282.048C227.424 282.048 227.232 282.048 227.136 282.144L228 282.24C227.904 282.144 227.712 282.048 227.52 282.048ZM208.608 276.48C208.224 276.48 207.936 276.768 207.936 277.152C207.936 277.536 208.224 277.824 208.608 277.824C208.992 277.824 209.28 277.536 209.28 277.152C209.28 276.768 208.992 276.48 208.608 276.48ZM216.192 276.48C215.808 276.48 215.52 276.768 215.52 277.152C215.52 277.536 215.808 277.824 216.192 277.824C216.576 277.824 216.864 277.536 216.864 277.152C216.864 276.768 216.576 276.48 216.192 276.48ZM223.68 276.48C223.296 276.48 223.008 276.768 223.008 277.152C223.008 277.536 223.296 277.824 223.68 277.824C224.064 277.824 224.352 277.536 224.352 277.152C224.448 276.768 224.064 276.48 223.68 276.48Z" fill="white"/>
<path d="M210.72 280.032C210.528 279.936 208.32 279.552 208.128 279.648C208.032 278.4 207.456 272.448 207.36 271.776C207.36 271.68 207.264 271.68 207.264 271.776C207.264 272.16 207.264 273.504 207.36 275.04C207.36 275.04 207.36 275.04 207.36 274.944C207.264 274.656 207.072 274.368 206.976 274.08C206.88 273.792 206.784 273.504 206.688 273.216C206.688 273.12 206.496 273.216 206.592 273.312C206.688 273.6 206.784 273.888 206.88 274.176C206.976 274.464 207.072 274.752 207.168 275.04C207.264 275.328 207.36 275.52 207.456 275.808C207.552 277.536 207.648 279.264 207.648 279.936C208.704 280.032 209.76 280.032 210.72 280.032C210.816 280.032 210.816 280.032 210.72 280.032Z" fill="#263238"/>
<path d="M227.712 280.224C224.64 279.552 221.472 278.976 218.4 278.592C216.864 278.4 215.232 278.208 213.696 278.016C212.16 277.824 210.528 277.824 208.992 277.632C208.896 277.632 208.896 277.728 208.992 277.728C210.528 277.824 212.16 278.208 213.696 278.4C215.232 278.592 216.864 278.784 218.4 278.976C221.568 279.456 224.64 279.84 227.808 280.32C227.808 280.32 227.808 280.224 227.712 280.224Z" fill="#263238"/>
<path d="M223.296 270.624C223.296 270.624 223.2 270.624 223.296 270.624C223.584 271.584 228 280.128 229.44 282.336C228.864 282.24 228.288 282.24 227.712 282.24C228.384 282.432 229.152 282.528 229.92 282.624C230.016 282.624 223.968 271.392 223.296 270.624Z" fill="#263238"/>
<path d="M194.208 259.392C192.672 263.52 191.808 276.48 196.224 276.384C200.64 276.288 208.128 260.64 207.264 256.608C206.4 252.576 196.512 253.152 194.208 259.392Z" fill="#C95F50"/>
<path d="M204.384 258.336C204.288 259.296 200.16 266.016 195.744 266.208C194.304 266.304 193.632 258.432 193.632 258.432L193.44 257.856L190.848 249.888L199.872 242.88L201.216 241.92C201.216 241.92 201.792 244.128 202.464 246.912C202.464 247.008 202.56 247.2 202.56 247.296L202.656 247.776C202.752 248.16 202.848 248.64 202.944 249.024C203.04 249.408 203.04 249.696 203.136 249.984C203.232 250.272 203.232 250.656 203.328 250.944C203.904 253.44 204.192 255.84 204.384 258.336Z" fill="#C95F50"/>
<path d="M202.464 246.912C201.216 251.712 197.952 255.648 193.44 257.856L190.848 249.888L199.872 242.88L201.216 241.92C201.216 241.92 201.696 244.128 202.464 246.912Z" fill="#263238"/>
<path d="M178.656 235.584C176.352 250.176 184.8 253.152 187.968 253.632C190.848 254.112 200.544 255.168 204.288 240.96C208.032 226.752 201.984 221.088 195.552 219.744C189.12 218.4 180.864 221.088 178.656 235.584Z" fill="#C95F50"/>
<path d="M181.632 233.856C182.016 233.856 182.304 233.76 182.688 233.76C183.072 233.76 183.36 233.664 183.648 233.472C183.84 233.28 183.84 232.992 183.744 232.8C183.456 232.416 182.976 232.32 182.496 232.416C182.016 232.416 181.536 232.608 181.248 232.992C181.056 233.184 181.056 233.568 181.248 233.76C181.344 233.76 181.44 233.856 181.632 233.856Z" fill="#263238"/>
<path d="M191.136 234.816C190.848 234.72 190.464 234.624 190.176 234.528C189.792 234.528 189.504 234.336 189.216 234.048C189.12 233.856 189.12 233.568 189.312 233.376C189.696 233.088 190.176 232.992 190.656 233.184C191.136 233.28 191.52 233.568 191.808 233.952C192 234.24 191.904 234.528 191.616 234.72C191.424 234.816 191.232 234.912 191.136 234.816Z" fill="#263238"/>
<path d="M188.832 238.368L188.928 238.464C188.832 239.424 188.832 240.672 189.696 241.056V241.152C188.544 240.864 188.544 239.328 188.832 238.368Z" fill="#263238"/>
<path d="M189.888 237.408C191.52 237.408 191.232 240.672 189.792 240.672C188.352 240.672 188.544 237.408 189.888 237.408Z" fill="#263238"/>
<path d="M190.464 237.6C190.752 237.792 191.04 238.176 191.328 238.176C191.616 238.176 192 237.888 192.288 237.6H192.384C192.384 238.176 192.096 238.848 191.424 238.848C190.752 238.848 190.464 238.272 190.272 237.696C190.272 237.696 190.368 237.6 190.464 237.6Z" fill="#263238"/>
<path d="M183.264 237.696C183.264 237.696 183.168 237.696 183.264 237.696C183.168 238.752 182.976 239.904 182.016 240.192V240.288C183.168 240.096 183.456 238.56 183.264 237.696Z" fill="#263238"/>
<path d="M182.496 236.544C180.864 236.352 180.576 239.52 182.016 239.712C183.456 239.904 183.744 236.736 182.496 236.544Z" fill="#263238"/>
<path d="M181.728 236.736C181.44 236.832 181.152 237.12 180.864 237.12C180.576 237.12 180.288 236.736 180.096 236.352C180.096 236.352 180.096 236.352 180 236.352C179.904 236.928 180.096 237.6 180.672 237.792C181.248 237.984 181.632 237.504 181.824 236.832C181.92 236.832 181.824 236.64 181.728 236.736Z" fill="#263238"/>
<path d="M188.256 246.048C187.968 246.24 187.776 246.624 187.392 246.624C187.008 246.624 186.624 246.528 186.336 246.336H186.24C186.528 246.72 187.008 247.008 187.488 246.912C187.968 246.816 188.256 246.528 188.256 246.048C188.352 246.048 188.352 246.048 188.256 246.048C188.256 245.952 188.256 245.952 188.256 246.048Z" fill="#263238"/>
<path d="M184.416 242.016C184.416 242.016 184.128 243.456 184.032 244.224C184.032 244.32 184.224 244.32 184.416 244.32C185.664 244.608 186.912 244.32 187.776 243.36C187.776 243.264 187.776 243.264 187.68 243.264C186.72 243.84 185.664 244.032 184.512 243.84C184.512 243.648 185.184 241.344 185.088 241.344C184.512 241.344 184.032 241.44 183.456 241.536C184.032 238.464 185.088 235.488 185.664 232.416C185.664 232.32 185.664 232.32 185.568 232.32C185.472 232.32 185.472 232.32 185.472 232.416C184.224 235.584 183.264 238.848 182.688 242.208C182.592 242.592 184.128 242.112 184.416 242.016Z" fill="#263238"/>
<path d="M184.8 244.224C185.184 244.8 185.568 245.184 186.144 245.568C186.432 245.76 186.816 245.76 187.2 245.76C187.968 245.664 188.064 244.992 187.968 244.416C187.968 244.128 187.872 243.744 187.68 243.456C186.816 243.936 185.856 244.224 184.8 244.224Z" fill="#263238"/>
<path d="M186.144 245.472C186.432 245.664 186.816 245.664 187.2 245.664C187.968 245.568 188.064 244.896 187.968 244.32C187.104 244.224 186.432 244.704 186.144 245.472Z" fill="#FF9CBD"/>
<path d="M204 241.92C200.256 241.536 199.968 229.824 199.968 228.384C199.968 229.248 199.68 234.048 199.392 234.24C199.008 234.24 198.624 234.048 198.24 233.952C198.24 233.376 198.24 232.8 198.24 232.224C198.24 231.936 198.144 232.8 197.856 233.856L197.184 233.568C197.28 232.32 197.28 231.072 197.088 229.92C196.992 229.44 196.704 231.456 196.224 233.28C193.056 232.128 189.792 231.264 186.432 230.784C185.472 230.688 184.704 230.592 183.936 230.592C184.032 229.152 184.32 227.712 184.224 228C183.84 228.864 183.648 229.728 183.456 230.592H182.4C182.496 228.576 183.648 225.504 183.264 225.888C182.208 227.328 181.44 228.96 180.96 230.688C179.616 230.88 179.136 231.072 179.136 230.688C179.808 226.752 181.824 223.296 184.896 220.704C189.984 216.576 199.488 216.192 204.288 223.392C204.288 223.392 208.512 226.56 208.8 231.264C209.088 235.968 206.208 242.112 204 241.92Z" fill="#263238"/>
<path d="M201.792 241.728C201.792 241.728 205.344 237.312 207.36 238.656C209.376 240 206.496 246.432 204 247.2C202.752 247.68 201.312 247.008 200.832 245.76V245.664L201.792 241.728Z" fill="#C95F50"/>
<path d="M206.496 240.48C204.768 241.152 203.712 242.688 202.944 244.224C203.328 243.552 204.192 243.456 204.864 243.84C204.96 243.84 204.96 243.936 205.056 243.936C205.056 243.936 205.056 244.032 204.96 244.032C204.384 243.744 203.712 243.936 203.232 244.416C202.848 244.8 202.56 245.28 202.368 245.76C202.272 245.856 201.984 245.76 202.08 245.664C202.176 243.552 204.096 240.576 206.496 240.48Z" fill="#263238"/>
<path d="M40.32 290.976C41.7515 290.976 42.912 289.816 42.912 288.384C42.912 286.953 41.7515 285.792 40.32 285.792C38.8885 285.792 37.728 286.953 37.728 288.384C37.728 289.816 38.8885 290.976 40.32 290.976Z" fill="white"/>
<path d="M85.182 134.172C86.382 134.172 87.348 134.532 88.08 135.252C88.824 135.972 89.196 137.04 89.196 138.456V144H86.388V138.888C86.388 138.12 86.22 137.55 85.884 137.178C85.548 136.794 85.062 136.602 84.426 136.602C83.718 136.602 83.154 136.824 82.734 137.268C82.314 137.7 82.104 138.348 82.104 139.212V144H79.296V130.644H82.104V135.324C82.476 134.952 82.926 134.67 83.454 134.478C83.982 134.274 84.558 134.172 85.182 134.172ZM97.9873 143.532C97.7113 143.736 97.3693 143.892 96.9613 144C96.5653 144.096 96.1453 144.144 95.7013 144.144C94.5493 144.144 93.6553 143.85 93.0193 143.262C92.3953 142.674 92.0833 141.81 92.0833 140.67V136.692H90.5893V134.532H92.0833V132.174H94.8913V134.532H97.3033V136.692H94.8913V140.634C94.8913 141.042 94.9933 141.36 95.1973 141.588C95.4133 141.804 95.7133 141.912 96.0973 141.912C96.5413 141.912 96.9193 141.792 97.2313 141.552L97.9873 143.532ZM105.599 143.532C105.323 143.736 104.981 143.892 104.573 144C104.177 144.096 103.757 144.144 103.313 144.144C102.161 144.144 101.267 143.85 100.631 143.262C100.007 142.674 99.6946 141.81 99.6946 140.67V136.692H98.2006V134.532H99.6946V132.174H102.503V134.532H104.915V136.692H102.503V140.634C102.503 141.042 102.605 141.36 102.809 141.588C103.025 141.804 103.325 141.912 103.709 141.912C104.153 141.912 104.531 141.792 104.843 141.552L105.599 143.532ZM112.899 134.172C113.799 134.172 114.615 134.382 115.347 134.802C116.091 135.21 116.673 135.792 117.093 136.548C117.513 137.292 117.723 138.162 117.723 139.158C117.723 140.154 117.513 141.03 117.093 141.786C116.673 142.53 116.091 143.112 115.347 143.532C114.615 143.94 113.799 144.144 112.899 144.144C111.663 144.144 110.691 143.754 109.983 142.974V147.492H107.175V134.316H109.857V135.432C110.553 134.592 111.567 134.172 112.899 134.172ZM112.413 141.84C113.133 141.84 113.721 141.6 114.177 141.12C114.645 140.628 114.879 139.974 114.879 139.158C114.879 138.342 114.645 137.694 114.177 137.214C113.721 136.722 113.133 136.476 112.413 136.476C111.693 136.476 111.099 136.722 110.631 137.214C110.175 137.694 109.947 138.342 109.947 139.158C109.947 139.974 110.175 140.628 110.631 141.12C111.099 141.6 111.693 141.84 112.413 141.84ZM120.665 137.682C120.173 137.682 119.759 137.514 119.423 137.178C119.087 136.842 118.919 136.422 118.919 135.918C118.919 135.402 119.087 134.988 119.423 134.676C119.759 134.352 120.173 134.19 120.665 134.19C121.157 134.19 121.571 134.352 121.907 134.676C122.243 134.988 122.411 135.402 122.411 135.918C122.411 136.422 122.243 136.842 121.907 137.178C121.571 137.514 121.157 137.682 120.665 137.682ZM120.665 144.144C120.173 144.144 119.759 143.976 119.423 143.64C119.087 143.304 118.919 142.884 118.919 142.38C118.919 141.864 119.087 141.45 119.423 141.138C119.759 140.814 120.173 140.652 120.665 140.652C121.157 140.652 121.571 140.814 121.907 141.138C122.243 141.45 122.411 141.864 122.411 142.38C122.411 142.884 122.243 143.304 121.907 143.64C121.571 143.976 121.157 144.144 120.665 144.144ZM129.313 128.844H131.815L125.875 145.8H123.373L129.313 128.844ZM135.043 128.844H137.545L131.605 145.8H129.103L135.043 128.844ZM153.049 134.316L149.539 144H146.839L144.661 137.988L142.411 144H139.711L136.219 134.316H138.865L141.151 140.868L143.527 134.316H145.903L148.207 140.868L150.565 134.316H153.049ZM169.678 134.316L166.168 144H163.468L161.29 137.988L159.04 144H156.34L152.848 134.316H155.494L157.78 140.868L160.156 134.316H162.532L164.836 140.868L167.194 134.316H169.678ZM186.307 134.316L182.797 144H180.097L177.919 137.988L175.669 144H172.969L169.477 134.316H172.123L174.409 140.868L176.785 134.316H179.161L181.465 140.868L183.823 134.316H186.307ZM188.094 144.144C187.602 144.144 187.188 143.976 186.852 143.64C186.516 143.304 186.348 142.884 186.348 142.38C186.348 141.864 186.516 141.45 186.852 141.138C187.188 140.814 187.602 140.652 188.094 140.652C188.586 140.652 189 140.814 189.336 141.138C189.672 141.45 189.84 141.864 189.84 142.38C189.84 142.884 189.672 143.304 189.336 143.64C189 143.976 188.586 144.144 188.094 144.144ZM197.467 134.172C198.367 134.172 199.183 134.382 199.915 134.802C200.659 135.21 201.241 135.792 201.661 136.548C202.081 137.292 202.291 138.162 202.291 139.158C202.291 140.154 202.081 141.03 201.661 141.786C201.241 142.53 200.659 143.112 199.915 143.532C199.183 143.94 198.367 144.144 197.467 144.144C196.231 144.144 195.259 143.754 194.551 142.974V147.492H191.743V134.316H194.425V135.432C195.121 134.592 196.135 134.172 197.467 134.172ZM196.981 141.84C197.701 141.84 198.289 141.6 198.745 141.12C199.213 140.628 199.447 139.974 199.447 139.158C199.447 138.342 199.213 137.694 198.745 137.214C198.289 136.722 197.701 136.476 196.981 136.476C196.261 136.476 195.667 136.722 195.199 137.214C194.743 137.694 194.515 138.342 194.515 139.158C194.515 139.974 194.743 140.628 195.199 141.12C195.667 141.6 196.261 141.84 196.981 141.84ZM206.853 135.594C207.189 135.126 207.639 134.772 208.203 134.532C208.779 134.292 209.439 134.172 210.183 134.172V136.764C209.871 136.74 209.661 136.728 209.553 136.728C208.749 136.728 208.119 136.956 207.663 137.412C207.207 137.856 206.979 138.528 206.979 139.428V144H204.171V134.316H206.853V135.594ZM211.853 134.316H214.661V144H211.853V134.316ZM213.257 132.966C212.741 132.966 212.321 132.816 211.997 132.516C211.673 132.216 211.511 131.844 211.511 131.4C211.511 130.956 211.673 130.584 211.997 130.284C212.321 129.984 212.741 129.834 213.257 129.834C213.773 129.834 214.193 129.978 214.517 130.266C214.841 130.554 215.003 130.914 215.003 131.346C215.003 131.814 214.841 132.204 214.517 132.516C214.193 132.816 213.773 132.966 213.257 132.966ZM220.525 144.144C219.721 144.144 218.935 144.048 218.167 143.856C217.399 143.652 216.787 143.4 216.331 143.1L217.267 141.084C217.699 141.36 218.221 141.588 218.833 141.768C219.445 141.936 220.045 142.02 220.633 142.02C221.821 142.02 222.415 141.726 222.415 141.138C222.415 140.862 222.253 140.664 221.929 140.544C221.605 140.424 221.107 140.322 220.435 140.238C219.643 140.118 218.989 139.98 218.473 139.824C217.957 139.668 217.507 139.392 217.123 138.996C216.751 138.6 216.565 138.036 216.565 137.304C216.565 136.692 216.739 136.152 217.087 135.684C217.447 135.204 217.963 134.832 218.635 134.568C219.319 134.304 220.123 134.172 221.047 134.172C221.731 134.172 222.409 134.25 223.081 134.406C223.765 134.55 224.329 134.754 224.773 135.018L223.837 137.016C222.985 136.536 222.055 136.296 221.047 136.296C220.447 136.296 219.997 136.38 219.697 136.548C219.397 136.716 219.247 136.932 219.247 137.196C219.247 137.496 219.409 137.706 219.733 137.826C220.057 137.946 220.573 138.06 221.281 138.168C222.073 138.3 222.721 138.444 223.225 138.6C223.729 138.744 224.167 139.014 224.539 139.41C224.911 139.806 225.097 140.358 225.097 141.066C225.097 141.666 224.917 142.2 224.557 142.668C224.197 143.136 223.669 143.502 222.973 143.766C222.289 144.018 221.473 144.144 220.525 144.144ZM232.715 134.172C233.915 134.172 234.881 134.532 235.613 135.252C236.357 135.972 236.729 137.04 236.729 138.456V144H233.921V138.888C233.921 138.12 233.753 137.55 233.417 137.178C233.081 136.794 232.595 136.602 231.959 136.602C231.251 136.602 230.687 136.824 230.267 137.268C229.847 137.7 229.637 138.348 229.637 139.212V144H226.829V130.644H229.637V135.324C230.009 134.952 230.459 134.67 230.987 134.478C231.515 134.274 232.091 134.172 232.715 134.172ZM243.181 134.172C244.681 134.172 245.833 134.532 246.637 135.252C247.441 135.96 247.843 137.034 247.843 138.474V144H245.215V142.794C244.687 143.694 243.703 144.144 242.263 144.144C241.519 144.144 240.871 144.018 240.319 143.766C239.779 143.514 239.365 143.166 239.077 142.722C238.789 142.278 238.645 141.774 238.645 141.21C238.645 140.31 238.981 139.602 239.653 139.086C240.337 138.57 241.387 138.312 242.803 138.312H245.035C245.035 137.7 244.849 137.232 244.477 136.908C244.105 136.572 243.547 136.404 242.803 136.404C242.287 136.404 241.777 136.488 241.273 136.656C240.781 136.812 240.361 137.028 240.013 137.304L239.005 135.342C239.533 134.97 240.163 134.682 240.895 134.478C241.639 134.274 242.401 134.172 243.181 134.172ZM242.965 142.254C243.445 142.254 243.871 142.146 244.243 141.93C244.615 141.702 244.879 141.372 245.035 140.94V139.95H243.109C241.957 139.95 241.381 140.328 241.381 141.084C241.381 141.444 241.519 141.732 241.795 141.948C242.083 142.152 242.473 142.254 242.965 142.254ZM256.108 134.172C257.008 134.172 257.824 134.382 258.556 134.802C259.3 135.21 259.882 135.792 260.302 136.548C260.722 137.292 260.932 138.162 260.932 139.158C260.932 140.154 260.722 141.03 260.302 141.786C259.882 142.53 259.3 143.112 258.556 143.532C257.824 143.94 257.008 144.144 256.108 144.144C254.872 144.144 253.9 143.754 253.192 142.974V147.492H250.384V134.316H253.066V135.432C253.762 134.592 254.776 134.172 256.108 134.172ZM255.622 141.84C256.342 141.84 256.93 141.6 257.386 141.12C257.854 140.628 258.088 139.974 258.088 139.158C258.088 138.342 257.854 137.694 257.386 137.214C256.93 136.722 256.342 136.476 255.622 136.476C254.902 136.476 254.308 136.722 253.84 137.214C253.384 137.694 253.156 138.342 253.156 139.158C253.156 139.974 253.384 140.628 253.84 141.12C254.308 141.6 254.902 141.84 255.622 141.84ZM267.42 144.144C266.4 144.144 265.482 143.934 264.666 143.514C263.862 143.082 263.232 142.488 262.776 141.732C262.32 140.976 262.092 140.118 262.092 139.158C262.092 138.198 262.32 137.34 262.776 136.584C263.232 135.828 263.862 135.24 264.666 134.82C265.482 134.388 266.4 134.172 267.42 134.172C268.44 134.172 269.352 134.388 270.156 134.82C270.96 135.24 271.59 135.828 272.046 136.584C272.502 137.34 272.73 138.198 272.73 139.158C272.73 140.118 272.502 140.976 272.046 141.732C271.59 142.488 270.96 143.082 270.156 143.514C269.352 143.934 268.44 144.144 267.42 144.144ZM267.42 141.84C268.14 141.84 268.728 141.6 269.184 141.12C269.652 140.628 269.886 139.974 269.886 139.158C269.886 138.342 269.652 137.694 269.184 137.214C268.728 136.722 268.14 136.476 267.42 136.476C266.7 136.476 266.106 136.722 265.638 137.214C265.17 137.694 264.936 138.342 264.936 139.158C264.936 139.974 265.17 140.628 265.638 141.12C266.106 141.6 266.7 141.84 267.42 141.84ZM274.607 130.644H277.415V144H274.607V130.644ZM280.021 134.316H282.829V144H280.021V134.316ZM281.425 132.966C280.909 132.966 280.489 132.816 280.165 132.516C279.841 132.216 279.679 131.844 279.679 131.4C279.679 130.956 279.841 130.584 280.165 130.284C280.489 129.984 280.909 129.834 281.425 129.834C281.941 129.834 282.361 129.978 282.685 130.266C283.009 130.554 283.171 130.914 283.171 131.346C283.171 131.814 283.009 132.204 282.685 132.516C282.361 132.816 281.941 132.966 281.425 132.966ZM290.115 144.144C289.083 144.144 288.153 143.934 287.325 143.514C286.509 143.082 285.867 142.488 285.399 141.732C284.943 140.976 284.715 140.118 284.715 139.158C284.715 138.198 284.943 137.34 285.399 136.584C285.867 135.828 286.509 135.24 287.325 134.82C288.153 134.388 289.083 134.172 290.115 134.172C291.135 134.172 292.023 134.388 292.779 134.82C293.547 135.24 294.105 135.846 294.453 136.638L292.275 137.808C291.771 136.92 291.045 136.476 290.097 136.476C289.365 136.476 288.759 136.716 288.279 137.196C287.799 137.676 287.559 138.33 287.559 139.158C287.559 139.986 287.799 140.64 288.279 141.12C288.759 141.6 289.365 141.84 290.097 141.84C291.057 141.84 291.783 141.396 292.275 140.508L294.453 141.696C294.105 142.464 293.547 143.064 292.779 143.496C292.023 143.928 291.135 144.144 290.115 144.144ZM305.541 134.316L301.167 144.594C300.723 145.71 300.171 146.496 299.511 146.952C298.863 147.408 298.077 147.636 297.153 147.636C296.649 147.636 296.151 147.558 295.659 147.402C295.167 147.246 294.765 147.03 294.453 146.754L295.479 144.756C295.695 144.948 295.941 145.098 296.217 145.206C296.505 145.314 296.787 145.368 297.063 145.368C297.447 145.368 297.759 145.272 297.999 145.08C298.239 144.9 298.455 144.594 298.647 144.162L298.683 144.072L294.489 134.316H297.387L300.105 140.886L302.841 134.316H305.541ZM307.169 144.144C306.677 144.144 306.263 143.976 305.927 143.64C305.591 143.304 305.423 142.884 305.423 142.38C305.423 141.864 305.591 141.45 305.927 141.138C306.263 140.814 306.677 140.652 307.169 140.652C307.661 140.652 308.075 140.814 308.411 141.138C308.747 141.45 308.915 141.864 308.915 142.38C308.915 142.884 308.747 143.304 308.411 143.64C308.075 143.976 307.661 144.144 307.169 144.144ZM315.374 144.144C314.342 144.144 313.412 143.934 312.584 143.514C311.768 143.082 311.126 142.488 310.658 141.732C310.202 140.976 309.974 140.118 309.974 139.158C309.974 138.198 310.202 137.34 310.658 136.584C311.126 135.828 311.768 135.24 312.584 134.82C313.412 134.388 314.342 134.172 315.374 134.172C316.394 134.172 317.282 134.388 318.038 134.82C318.806 135.24 319.364 135.846 319.712 136.638L317.534 137.808C317.03 136.92 316.304 136.476 315.356 136.476C314.624 136.476 314.018 136.716 313.538 137.196C313.058 137.676 312.818 138.33 312.818 139.158C312.818 139.986 313.058 140.64 313.538 141.12C314.018 141.6 314.624 141.84 315.356 141.84C316.316 141.84 317.042 141.396 317.534 140.508L319.712 141.696C319.364 142.464 318.806 143.064 318.038 143.496C317.282 143.928 316.394 144.144 315.374 144.144ZM325.814 144.144C324.794 144.144 323.876 143.934 323.06 143.514C322.256 143.082 321.626 142.488 321.17 141.732C320.714 140.976 320.486 140.118 320.486 139.158C320.486 138.198 320.714 137.34 321.17 136.584C321.626 135.828 322.256 135.24 323.06 134.82C323.876 134.388 324.794 134.172 325.814 134.172C326.834 134.172 327.746 134.388 328.55 134.82C329.354 135.24 329.984 135.828 330.44 136.584C330.896 137.34 331.124 138.198 331.124 139.158C331.124 140.118 330.896 140.976 330.44 141.732C329.984 142.488 329.354 143.082 328.55 143.514C327.746 143.934 326.834 144.144 325.814 144.144ZM325.814 141.84C326.534 141.84 327.122 141.6 327.578 141.12C328.046 140.628 328.28 139.974 328.28 139.158C328.28 138.342 328.046 137.694 327.578 137.214C327.122 136.722 326.534 136.476 325.814 136.476C325.094 136.476 324.5 136.722 324.032 137.214C323.564 137.694 323.33 138.342 323.33 139.158C323.33 139.974 323.564 140.628 324.032 141.12C324.5 141.6 325.094 141.84 325.814 141.84ZM345.403 134.172C346.615 134.172 347.575 134.532 348.283 135.252C349.003 135.96 349.363 137.028 349.363 138.456V144H346.555V138.888C346.555 138.12 346.393 137.55 346.069 137.178C345.757 136.794 345.307 136.602 344.719 136.602C344.059 136.602 343.537 136.818 343.153 137.25C342.769 137.67 342.577 138.3 342.577 139.14V144H339.769V138.888C339.769 137.364 339.157 136.602 337.933 136.602C337.285 136.602 336.769 136.818 336.385 137.25C336.001 137.67 335.809 138.3 335.809 139.14V144H333.001V134.316H335.683V135.432C336.043 135.024 336.481 134.712 336.997 134.496C337.525 134.28 338.101 134.172 338.725 134.172C339.409 134.172 340.027 134.31 340.579 134.586C341.131 134.85 341.575 135.24 341.911 135.756C342.307 135.252 342.805 134.862 343.405 134.586C344.017 134.31 344.683 134.172 345.403 134.172Z" fill="black"/>
<path d="M247.488 178.848L253.536 193.44L247.488 195.936L241.44 181.248L231.552 189.024V148.032L260.16 177.024L247.488 178.848Z" fill="#263238"/>
</svg>
